<svg width="303" height="31" viewBox="0 0 303 31" fill="none" xmlns="http://www.w3.org/2000/svg">
<path d="M0.936523 1.26953H6.60059C8.87923 1.26953 10.6305 1.54297 11.8545 2.08984C13.0785 2.6237 14.042 3.45052 14.7451 4.57031C15.4613 5.6901 15.8193 6.93359 15.8193 8.30078C15.8193 9.57682 15.5068 10.7422 14.8818 11.7969C14.2568 12.8385 13.3389 13.6849 12.1279 14.3359C13.6253 14.8438 14.7777 15.4427 15.585 16.1328C16.3923 16.8099 17.0173 17.6367 17.46 18.6133C17.9157 19.5768 18.1436 20.625 18.1436 21.7578C18.1436 24.0625 17.2972 26.0156 15.6045 27.6172C13.9248 29.2057 11.6657 30 8.82715 30H0.936523V1.26953ZM3.74902 4.08203V13.2812H5.38965C7.38184 13.2812 8.84668 13.099 9.78418 12.7344C10.7217 12.3568 11.4639 11.7708 12.0107 10.9766C12.5576 10.1693 12.8311 9.27734 12.8311 8.30078C12.8311 6.98568 12.3688 5.95703 11.4443 5.21484C10.5329 4.45964 9.07454 4.08203 7.06934 4.08203H3.74902ZM3.74902 16.1719V27.1875H7.30371C9.40007 27.1875 10.9365 26.9857 11.9131 26.582C12.8896 26.1654 13.6709 25.5208 14.2568 24.6484C14.8558 23.776 15.1553 22.832 15.1553 21.8164C15.1553 20.5404 14.7386 19.4271 13.9053 18.4766C13.0719 17.526 11.9261 16.875 10.4678 16.5234C9.49121 16.2891 7.79199 16.1719 5.37012 16.1719H3.74902ZM37.5186 0.546875C41.8675 0.546875 45.5068 1.9987 48.4365 4.90234C51.3662 7.80599 52.8311 11.3802 52.8311 15.625C52.8311 19.8307 51.3662 23.3984 48.4365 26.3281C45.5199 29.2578 41.9587 30.7227 37.7529 30.7227C33.4951 30.7227 29.9014 29.2643 26.9717 26.3477C24.042 23.431 22.5771 19.9023 22.5771 15.7617C22.5771 13.0013 23.2412 10.4427 24.5693 8.08594C25.9105 5.72917 27.7334 3.88672 30.0381 2.55859C32.3428 1.21745 34.8363 0.546875 37.5186 0.546875ZM37.6553 3.35938C35.5329 3.35938 33.5212 3.91276 31.6201 5.01953C29.7191 6.1263 28.2347 7.61719 27.167 9.49219C26.0993 11.3672 25.5654 13.457 25.5654 15.7617C25.5654 19.1732 26.7438 22.0573 29.1006 24.4141C31.4704 26.7578 34.3219 27.9297 37.6553 27.9297C39.8818 27.9297 41.9391 27.3893 43.8271 26.3086C45.7282 25.2279 47.2061 23.75 48.2607 21.875C49.3285 20 49.8623 17.9167 49.8623 15.625C49.8623 13.3464 49.3285 11.2891 48.2607 9.45312C47.2061 7.60417 45.7152 6.1263 43.7881 5.01953C41.861 3.91276 39.8167 3.35938 37.6553 3.35938ZM58.1826 1.26953H61.0537V30H58.1826V1.26953ZM64.6865 24.6484L67.1279 23.1836C68.8467 26.3477 70.8324 27.9297 73.085 27.9297C74.0485 27.9297 74.9535 27.7083 75.7998 27.2656C76.6462 26.8099 77.2907 26.2044 77.7334 25.4492C78.1761 24.694 78.3975 23.8932 78.3975 23.0469C78.3975 22.0833 78.0719 21.1393 77.4209 20.2148C76.5225 18.9388 74.8818 17.4023 72.499 15.6055C70.1032 13.7956 68.6123 12.487 68.0264 11.6797C67.0107 10.3255 66.5029 8.86068 66.5029 7.28516C66.5029 6.03516 66.8024 4.89583 67.4014 3.86719C68.0003 2.83854 68.8402 2.03125 69.9209 1.44531C71.0146 0.846354 72.1995 0.546875 73.4756 0.546875C74.8298 0.546875 76.0928 0.885417 77.2646 1.5625C78.4495 2.22656 79.6995 3.45703 81.0146 5.25391L78.6709 7.03125C77.5902 5.59896 76.6657 4.65495 75.8975 4.19922C75.1423 3.74349 74.3154 3.51562 73.417 3.51562C72.2581 3.51562 71.3076 3.86719 70.5654 4.57031C69.8363 5.27344 69.4717 6.13932 69.4717 7.16797C69.4717 7.79297 69.6019 8.39844 69.8623 8.98438C70.1227 9.57031 70.598 10.2083 71.2881 10.8984C71.6657 11.263 72.9027 12.2201 74.999 13.7695C77.486 15.6055 79.1917 17.2396 80.1162 18.6719C81.0407 20.1042 81.5029 21.543 81.5029 22.9883C81.5029 25.0716 80.7087 26.8815 79.1201 28.418C77.5446 29.9544 75.624 30.7227 73.3584 30.7227C71.6136 30.7227 70.0316 30.2604 68.6123 29.3359C67.193 28.3984 65.8844 26.8359 64.6865 24.6484ZM87.5771 30V1.26953H93.5342C97.8311 1.26953 100.95 1.61458 102.89 2.30469C105.676 3.28125 107.851 4.97396 109.413 7.38281C110.989 9.79167 111.776 12.6628 111.776 15.9961C111.776 18.8737 111.151 21.4062 109.901 23.5938C108.664 25.7812 107.05 27.3958 105.058 28.4375C103.078 29.4792 100.299 30 96.7178 30H87.5771ZM90.3311 27.2852H93.6514C97.6227 27.2852 100.377 27.0378 101.913 26.543C104.075 25.8398 105.774 24.5768 107.011 22.7539C108.248 20.918 108.866 18.6784 108.866 16.0352C108.866 13.2617 108.196 10.8919 106.854 8.92578C105.513 6.95964 103.645 5.61198 101.249 4.88281C99.4521 4.33594 96.4899 4.0625 92.3623 4.0625H90.3311V27.2852ZM116.933 1.26953H119.804V30H116.933V1.26953ZM126.425 30V1.26953H127.05L146.151 23.2617V1.26953H148.983V30H148.339L129.394 8.28125V30H126.425ZM183.729 6.09375L181.503 8.20312C179.901 6.6276 178.144 5.4362 176.229 4.62891C174.328 3.80859 172.473 3.39844 170.663 3.39844C168.41 3.39844 166.262 3.95182 164.218 5.05859C162.187 6.16536 160.611 7.66927 159.491 9.57031C158.371 11.4583 157.812 13.457 157.812 15.5664C157.812 17.7279 158.391 19.7852 159.55 21.7383C160.709 23.6784 162.31 25.2083 164.354 26.3281C166.399 27.4349 168.638 27.9883 171.073 27.9883C174.029 27.9883 176.529 27.1549 178.573 25.4883C180.618 23.8216 181.828 21.6602 182.206 19.0039H173.046V16.2305H185.429C185.403 20.6706 184.081 24.1992 181.464 26.8164C178.86 29.4206 175.37 30.7227 170.995 30.7227C165.683 30.7227 161.477 28.9128 158.378 25.293C155.995 22.5065 154.804 19.2839 154.804 15.625C154.804 12.9036 155.487 10.3711 156.854 8.02734C158.222 5.68359 160.097 3.85417 162.479 2.53906C164.862 1.21094 167.558 0.546875 170.565 0.546875C173 0.546875 175.292 0.989583 177.44 1.875C179.589 2.7474 181.685 4.15365 183.729 6.09375ZM190.858 1.26953H193.749V13.3203H208.358V1.26953H211.249V30H208.358V16.1328H193.749V30H190.858V1.26953ZM218.261 1.26953H234.726V4.10156H221.132V13.0859H234.608V15.8984H221.132V27.168H234.608V30H218.261V1.26953ZM238.378 30L242.46 1.26953H242.929L254.608 24.8438L266.171 1.26953H266.64L270.761 30H267.929L265.116 9.45312L254.96 30H254.237L243.944 9.29688L241.151 30H238.378ZM274.677 30L275.307 26.9971H278.31L277.665 30H274.677ZM282.66 30L285.487 16.4941H283.114L283.539 14.4434H285.912L286.366 12.2314C286.601 11.1279 286.84 10.332 287.084 9.84375C287.338 9.35547 287.743 8.95508 288.3 8.64258C288.866 8.32031 289.633 8.15918 290.6 8.15918C291.273 8.15918 292.25 8.30078 293.529 8.58398L293.046 10.8984C292.147 10.6641 291.396 10.5469 290.79 10.5469C290.272 10.5469 289.877 10.6787 289.604 10.9424C289.34 11.1963 289.11 11.8066 288.915 12.7734L288.563 14.4434H291.522L291.098 16.4941H288.139L285.312 30H282.66ZM290.644 30L293.896 14.4434H296.239L295.58 17.6221C296.381 16.4209 297.162 15.5322 297.924 14.9561C298.695 14.3799 299.481 14.0918 300.282 14.0918C300.81 14.0918 301.459 14.2822 302.23 14.6631L301.146 17.124C300.688 16.792 300.185 16.626 299.638 16.626C298.71 16.626 297.758 17.1436 296.781 18.1787C295.805 19.2139 295.038 21.0742 294.481 23.7598L293.163 30H290.644Z" fill="white"/>
</svg>
