<svg width="384" height="48" viewBox="0 0 384 48" fill="none" xmlns="http://www.w3.org/2000/svg">
<path d="M0.608398 37V1.08691H6.24805C9.51953 1.08691 11.9121 1.2985 13.4258 1.72168C15.5742 2.29134 17.2832 3.34928 18.5527 4.89551C19.8223 6.44173 20.457 8.26465 20.457 10.3643C20.457 11.7314 20.1641 12.9766 19.5781 14.0996C19.0085 15.2064 18.0726 16.248 16.7705 17.2246C18.9515 18.25 20.5465 19.5358 21.5557 21.082C22.5648 22.612 23.0693 24.4268 23.0693 26.5264C23.0693 28.5446 22.5485 30.3838 21.5068 32.0439C20.4652 33.7041 19.1224 34.9492 17.4785 35.7793C15.8346 36.5931 13.5641 37 10.667 37H0.608398ZM7.44434 7.60547V15.1738H8.93359C10.5938 15.1738 11.8226 14.8239 12.6201 14.124C13.4339 13.4242 13.8408 12.472 13.8408 11.2676C13.8408 10.1445 13.4583 9.25749 12.6934 8.60645C11.9284 7.93913 10.7646 7.60547 9.20215 7.60547H7.44434ZM7.44434 21.2773V30.4814H9.15332C11.9854 30.4814 13.8896 30.1234 14.8662 29.4072C15.859 28.6911 16.3555 27.6494 16.3555 26.2822C16.3555 24.736 15.7777 23.5153 14.6221 22.6201C13.4665 21.7249 11.5459 21.2773 8.86035 21.2773H7.44434ZM46.5801 0.183594C51.6582 0.183594 56.0202 2.02279 59.666 5.70117C63.3281 9.37956 65.1592 13.8636 65.1592 19.1533C65.1592 24.3942 63.3525 28.8294 59.7393 32.459C56.1423 36.0885 51.7721 37.9033 46.6289 37.9033C41.2415 37.9033 36.7656 36.0397 33.2012 32.3125C29.6367 28.5853 27.8545 24.1582 27.8545 19.0312C27.8545 15.597 28.6846 12.4395 30.3447 9.55859C32.0049 6.67773 34.2835 4.39909 37.1807 2.72266C40.0941 1.02995 43.2272 0.183594 46.5801 0.183594ZM46.5068 6.87305C43.1865 6.87305 40.3952 8.02865 38.1328 10.3398C35.8704 12.651 34.7393 15.5889 34.7393 19.1533C34.7393 23.1247 36.1634 26.266 39.0117 28.5771C41.2253 30.3838 43.7643 31.2871 46.6289 31.2871C49.8678 31.2871 52.6266 30.1152 54.9053 27.7715C57.1839 25.4277 58.3232 22.5387 58.3232 19.1045C58.3232 15.6865 57.1758 12.7975 54.8809 10.4375C52.5859 8.0612 49.7946 6.87305 46.5068 6.87305ZM71.1162 1.08691H77.9033V37H71.1162V1.08691ZM104.441 5.96973L99.3877 10.4375C97.6136 7.96354 95.807 6.72656 93.9678 6.72656C93.0726 6.72656 92.3402 6.9707 91.7705 7.45898C91.2008 7.93099 90.916 8.4681 90.916 9.07031C90.916 9.67253 91.1195 10.2422 91.5264 10.7793C92.0798 11.4954 93.748 13.0335 96.5312 15.3936C99.1354 17.5745 100.714 18.9499 101.268 19.5195C102.651 20.9193 103.628 22.262 104.197 23.5479C104.783 24.8174 105.076 26.209 105.076 27.7227C105.076 30.6686 104.059 33.1019 102.024 35.0225C99.9899 36.943 97.3369 37.9033 94.0654 37.9033C91.5101 37.9033 89.2803 37.2767 87.376 36.0234C85.488 34.7702 83.8685 32.8008 82.5176 30.1152L88.2549 26.6484C89.9801 29.8223 91.9658 31.4092 94.2119 31.4092C95.3838 31.4092 96.3685 31.0674 97.166 30.3838C97.9635 29.7002 98.3623 28.9108 98.3623 28.0156C98.3623 27.2018 98.0612 26.388 97.459 25.5742C96.8568 24.7604 95.5303 23.5153 93.4795 21.8389C89.5732 18.6488 87.0505 16.1911 85.9111 14.4658C84.7718 12.7243 84.2021 10.9909 84.2021 9.26562C84.2021 6.77539 85.1462 4.64323 87.0342 2.86914C88.9385 1.07878 91.2822 0.183594 94.0654 0.183594C95.8558 0.183594 97.5566 0.598633 99.168 1.42871C100.796 2.25879 102.553 3.77246 104.441 5.96973ZM111.668 1.08691H119.773C124.998 1.08691 128.88 1.73796 131.419 3.04004C133.958 4.32585 136.049 6.42546 137.693 9.33887C139.337 12.2523 140.159 15.654 140.159 19.5439C140.159 22.3109 139.695 24.8581 138.768 27.1855C137.856 29.4967 136.587 31.4173 134.959 32.9473C133.348 34.4772 131.598 35.5352 129.71 36.1211C127.822 36.707 124.55 37 119.896 37H111.668V1.08691ZM118.479 7.67871V30.3105H121.653C124.778 30.3105 127.041 29.9525 128.44 29.2363C129.856 28.5202 131.012 27.3158 131.907 25.623C132.802 23.9303 133.25 21.847 133.25 19.373C133.25 15.5645 132.184 12.6104 130.052 10.5107C128.131 8.62272 125.047 7.67871 120.799 7.67871H118.479ZM146.165 1.08691H152.952V37H146.165V1.08691ZM160.691 1.08691H167.234L182.64 24.7197V1.08691H189.476V37H182.908L167.527 13.4404V37H160.691V1.08691ZM230.833 6.94629L226.023 11.707C222.98 8.48438 219.432 6.87305 215.379 6.87305C211.847 6.87305 208.885 8.04492 206.492 10.3887C204.116 12.7324 202.928 15.5807 202.928 18.9336C202.928 22.4004 204.165 25.3382 206.639 27.7471C209.113 30.1559 212.164 31.3604 215.794 31.3604C218.154 31.3604 220.14 30.8639 221.751 29.8711C223.379 28.8783 224.689 27.3239 225.682 25.208H215.281V18.7871H233.348L233.396 20.3008C233.396 23.4421 232.583 26.4206 230.955 29.2363C229.327 32.0521 227.22 34.2005 224.632 35.6816C222.044 37.1628 219.008 37.9033 215.525 37.9033C211.798 37.9033 208.47 37.0977 205.54 35.4863C202.627 33.8587 200.315 31.5475 198.606 28.5527C196.914 25.5579 196.067 22.3271 196.067 18.8604C196.067 14.1077 197.638 9.97363 200.779 6.45801C204.507 2.27507 209.357 0.183594 215.33 0.183594C218.455 0.183594 221.377 0.761393 224.095 1.91699C226.39 2.89355 228.636 4.56999 230.833 6.94629ZM239.646 1.08691H246.58V14.6367H258.592V1.08691H265.501V37H258.592V21.2529H246.58V37H239.646V1.08691ZM273.729 1.08691H293.333V7.77637H280.516V14.2705H293.333V20.8379H280.516V30.2861H293.333V37H273.729V1.08691ZM303.196 1.08691H309.886L318.187 26.1357L326.609 1.08691H333.201L339.256 37H332.664L328.807 14.3193L321.165 37H315.135L307.591 14.3193L303.66 37H296.995L303.196 1.08691ZM340.747 37L341.797 32.1H344.697L343.647 37H340.747ZM355.741 13.65H352.341L352.891 10.95H356.341L356.441 10.25C356.875 8.11667 357.541 6.28333 358.441 4.75C359.375 3.21666 360.491 2.05 361.791 1.25C363.091 0.416666 364.491 -4.76837e-07 365.991 -4.76837e-07C366.958 -4.76837e-07 367.858 0.15 368.691 0.45C369.558 0.749998 370.291 1.15 370.891 1.65L369.341 4.1C369.008 3.73333 368.525 3.45 367.891 3.25C367.291 3.05 366.675 2.95 366.041 2.95C364.575 2.95 363.308 3.56666 362.241 4.8C361.175 6.03333 360.391 7.81666 359.891 10.15L359.741 10.95H366.491L365.941 13.65H359.141L351.941 47.6H348.541L355.741 13.65ZM371.304 10.95H374.504L373.154 17.2C374.454 15.3333 375.938 13.8333 377.604 12.7C379.271 11.5667 380.938 10.9667 382.604 10.9C382.871 10.9 383.104 10.9167 383.304 10.95C383.504 10.95 383.671 10.9667 383.804 11L383.154 13.95C381.021 14.0167 379.004 14.65 377.104 15.85C375.204 17.05 373.704 18.7 372.604 20.8L369.204 37H365.804L371.304 10.95Z" fill="black"/>
</svg>
