<svg width="54" height="54" viewBox="0 0 54 54" fill="none" xmlns="http://www.w3.org/2000/svg">
<path d="M46.4868 19.8031C46.4868 8.69444 37.3706 0.109472 26.5036 0.000972644C15.6365 -0.107526 6.64105 8.87555 6.64105 19.8031V43.1672H46.4868V19.8031Z" fill="black"/>
<path d="M27.8921 9.29815H25.296C24.632 9.29815 24.2093 10.083 24.2093 10.6867V15.9391H18.0514C17.3873 15.9391 16.6628 16.3617 16.6628 17.0862V19.6218C16.6628 20.2859 17.3269 20.7085 18.0514 20.7085H24.149C24.149 20.7085 24.2093 33.749 24.2093 34.4131C24.2093 35.0772 24.3905 35.5601 25.2357 35.5601H27.8921C28.6769 35.5601 28.9788 35.1979 28.9788 34.4131V20.7085H34.9556C35.6801 20.7085 36.4046 20.1652 36.4046 19.6218V17.0258C36.4046 16.4825 35.6197 15.9391 34.9556 15.9391H28.9788V10.6867C28.9788 10.083 28.6165 9.29816 27.8921 9.29815Z" fill="white"/>
<path d="M0 50.0322C0 48.1317 1.54069 46.591 3.44122 46.591H49.5657C51.4662 46.591 53.0069 48.1317 53.0069 50.0322C53.0069 51.9327 51.4662 53.4734 49.5657 53.4734H3.44122C1.54068 53.4734 0 51.9327 0 50.0322Z" fill="black"/>
</svg>
