<svg width="961" height="148" viewBox="0 0 961 148" fill="none" xmlns="http://www.w3.org/2000/svg">
<path d="M52.4 3.99999H80.4L132.6 146H104.2L91 110.6H41.4L28.4 146H7.07805e-08L52.4 3.99999ZM86 91.2L66.4 32.6L46 91.2H86ZM191.25 148C179.917 148 170.117 145.467 161.85 140.4C153.583 135.333 147.183 128.667 142.65 120.4C138.117 112.133 135.85 103.2 135.85 93.6C135.85 83.8667 138.05 74.8667 142.45 66.6C146.983 58.3333 153.383 51.7333 161.65 46.8C169.917 41.8667 179.717 39.4 191.05 39.4C202.517 39.4 212.25 41.8667 220.25 46.8C228.383 51.7333 234.45 58.2 238.45 66.2L212.25 74.2C207.583 66.2 200.45 62.2 190.85 62.2C185.65 62.2 180.983 63.5333 176.85 66.2C172.717 68.7333 169.45 72.4 167.05 77.2C164.65 81.8667 163.45 87.3333 163.45 93.6C163.45 99.7333 164.65 105.2 167.05 110C169.583 114.667 172.917 118.4 177.05 121.2C181.183 123.867 185.783 125.2 190.85 125.2C195.65 125.2 200.05 124.067 204.05 121.8C208.183 119.4 211.05 116.4 212.65 112.8L238.85 120.8C235.25 128.667 229.25 135.2 220.85 140.4C212.583 145.467 202.717 148 191.25 148ZM318.141 140.6C314.541 142.2 310.074 143.8 304.741 145.4C299.541 147 294.141 147.8 288.541 147.8C283.607 147.8 279.074 146.933 274.941 145.2C270.807 143.467 267.474 140.733 264.941 137C262.541 133.133 261.341 128.133 261.341 122V61.8H247.541V41.2H261.341V7.2H288.141V41.2H310.141V61.8H288.141V113C288.141 116.6 289.074 119.2 290.941 120.8C292.941 122.4 295.341 123.2 298.141 123.2C300.941 123.2 303.674 122.733 306.341 121.8C309.007 120.867 311.141 120.067 312.741 119.4L318.141 140.6ZM331.098 106.8V41.2H357.898V101C357.898 117.133 363.698 125.2 375.298 125.2C380.498 125.2 385.498 123.667 390.298 120.6C395.232 117.4 399.232 112.6 402.298 106.2V41.2H429.098V116C429.098 118.933 429.565 121 430.498 122.2C431.432 123.267 433.098 123.933 435.498 124.2V146C432.832 146.533 430.565 146.867 428.698 147C426.965 147.133 425.365 147.2 423.898 147.2C419.098 147.2 415.165 146.133 412.098 144C409.165 141.733 407.432 138.667 406.898 134.8L406.298 126.4C401.632 133.6 395.632 139 388.298 142.6C380.965 146.2 372.898 148 364.098 148C353.298 148 345.098 144.533 339.498 137.6C333.898 130.533 331.098 120.267 331.098 106.8ZM448.531 115C448.531 108.2 450.398 102.267 454.131 97.2C457.998 92 463.331 88 470.131 85.2C476.931 82.4 484.731 81 493.531 81C497.931 81 502.398 81.4 506.931 82.2C511.465 82.8667 515.398 83.8667 518.731 85.2V79.6C518.731 72.9333 516.731 67.8 512.731 64.2C508.865 60.6 503.065 58.8 495.331 58.8C489.598 58.8 484.131 59.8 478.931 61.8C473.731 63.8 468.265 66.7333 462.531 70.6L453.931 53C460.865 48.4667 467.931 45.0667 475.131 42.8C482.465 40.5333 490.131 39.4 498.131 39.4C513.065 39.4 524.665 43.1333 532.931 50.6C541.331 58.0667 545.531 68.7333 545.531 82.6V116C545.531 118.933 545.998 121 546.931 122.2C547.865 123.267 549.531 123.933 551.931 124.2V146C549.531 146.533 547.331 146.867 545.331 147C543.465 147.267 541.865 147.4 540.531 147.4C535.198 147.4 531.131 146.2 528.331 143.8C525.531 141.4 523.865 138.467 523.331 135L522.731 129.6C518.065 135.6 512.331 140.2 505.531 143.4C498.865 146.467 491.998 148 484.931 148C477.865 148 471.598 146.6 466.131 143.8C460.665 140.867 456.331 136.933 453.131 132C450.065 126.933 448.531 121.267 448.531 115ZM513.731 120.4C517.065 117.2 518.731 114.133 518.731 111.2V100.6C511.798 97.8 504.798 96.4 497.731 96.4C490.665 96.4 484.931 97.9333 480.531 101C476.131 103.933 473.931 107.867 473.931 112.8C473.931 116.8 475.531 120.4 478.731 123.6C481.931 126.8 486.531 128.4 492.531 128.4C496.531 128.4 500.398 127.667 504.131 126.2C507.998 124.733 511.198 122.8 513.731 120.4ZM570.375 -3.8147e-06H597.175V112.4C597.175 117.333 597.975 120.6 599.575 122.2C601.175 123.8 603.375 124.6 606.175 124.6C608.308 124.6 610.508 124.333 612.775 123.8C615.042 123.267 617.042 122.6 618.775 121.8L622.375 142.2C618.775 143.933 614.575 145.267 609.775 146.2C604.975 147.133 600.642 147.6 596.775 147.6C588.375 147.6 581.842 145.4 577.175 141C572.642 136.467 570.375 130.067 570.375 121.8V-3.8147e-06ZM634.052 26.6V-3.8147e-06H660.852V26.6H634.052ZM634.052 146V41.2H660.852V146H634.052ZM747.828 140.6C744.228 142.2 739.761 143.8 734.428 145.4C729.228 147 723.828 147.8 718.228 147.8C713.295 147.8 708.761 146.933 704.628 145.2C700.495 143.467 697.161 140.733 694.628 137C692.228 133.133 691.028 128.133 691.028 122V61.8H677.228V41.2H691.028V7.2H717.828V41.2H739.828V61.8H717.828V113C717.828 116.6 718.761 119.2 720.628 120.8C722.628 122.4 725.028 123.2 727.828 123.2C730.628 123.2 733.361 122.733 736.028 121.8C738.695 120.867 740.828 120.067 742.428 119.4L747.828 140.6ZM809.019 148C797.685 148 787.885 145.533 779.619 140.6C771.485 135.667 765.152 129.133 760.619 121C756.085 112.733 753.819 103.8 753.819 94.2C753.819 84.3333 756.019 75.2667 760.419 67C764.952 58.6 771.352 51.9333 779.619 47C787.885 41.9333 797.752 39.4 809.219 39.4C820.685 39.4 830.485 41.9333 838.619 47C846.752 51.9333 852.952 58.5333 857.219 66.8C861.619 74.9333 863.819 83.7333 863.819 93.2C863.819 96.6667 863.619 99.6667 863.219 102.2H782.219C782.885 110.333 785.885 116.733 791.219 121.4C796.685 126.067 802.952 128.4 810.019 128.4C815.352 128.4 820.352 127.133 825.019 124.6C829.819 121.933 833.085 118.467 834.819 114.2L857.819 120.6C853.952 128.6 847.752 135.2 839.219 140.4C830.685 145.467 820.619 148 809.019 148ZM781.619 85.2H836.419C835.619 77.3333 832.619 71 827.419 66.2C822.352 61.2667 816.152 58.8 808.819 58.8C801.619 58.8 795.419 61.2667 790.219 66.2C785.152 71 782.285 77.3333 781.619 85.2ZM817.619 29L800.419 23.8L811.219 -3.8147e-06H836.219L817.619 29ZM918.745 148C909.812 148 901.279 146.533 893.145 143.6C885.012 140.667 878.012 136.333 872.145 130.6L881.745 113.2C888.012 118.267 894.145 122 900.145 124.4C906.145 126.8 912.012 128 917.745 128C922.945 128 927.079 127.067 930.145 125.2C933.345 123.333 934.945 120.533 934.945 116.8C934.945 112.933 933.012 110.333 929.145 109C925.279 107.533 919.879 105.733 912.945 103.6C905.212 101.2 898.745 98.7333 893.545 96.2C888.345 93.6667 884.412 90.6 881.745 87C879.212 83.4 877.945 78.7333 877.945 73C877.945 62.7333 881.812 54.5333 889.545 48.4C897.279 42.2667 907.545 39.2 920.345 39.2C927.812 39.2 934.879 40.4 941.545 42.8C948.212 45.0667 954.279 48.8 959.745 54L948.945 71C938.679 63 928.745 59 919.145 59C914.879 59 911.079 59.8 907.745 61.4C904.545 63 902.945 65.8 902.945 69.8C902.945 73.5333 904.479 76.2 907.545 77.8C910.745 79.4 915.545 81.1333 921.945 83C930.212 85.5333 937.212 88 942.945 90.4C948.812 92.8 953.212 95.8667 956.145 99.6C959.212 103.333 960.745 108.4 960.745 114.8C960.745 125.2 956.945 133.333 949.345 139.2C941.745 145.067 931.545 148 918.745 148Z" fill="#F9F9FC"/>
<path d="M85.0675 93.75H95.5675L115.142 147H104.492L99.5425 133.725H80.9425L76.0675 147H65.4175L85.0675 93.75ZM97.6675 126.45L90.3175 104.475L82.6675 126.45H97.6675ZM137.136 147.75C132.886 147.75 129.211 146.8 126.111 144.9C123.011 143 120.611 140.5 118.911 137.4C117.211 134.3 116.361 130.95 116.361 127.35C116.361 123.7 117.186 120.325 118.836 117.225C120.536 114.125 122.936 111.65 126.036 109.8C129.136 107.95 132.811 107.025 137.061 107.025C141.361 107.025 145.011 107.95 148.011 109.8C151.061 111.65 153.336 114.075 154.836 117.075L145.011 120.075C143.261 117.075 140.586 115.575 136.986 115.575C135.036 115.575 133.286 116.075 131.736 117.075C130.186 118.025 128.961 119.4 128.061 121.2C127.161 122.95 126.711 125 126.711 127.35C126.711 129.65 127.161 131.7 128.061 133.5C129.011 135.25 130.261 136.65 131.811 137.7C133.361 138.7 135.086 139.2 136.986 139.2C138.786 139.2 140.436 138.775 141.936 137.925C143.486 137.025 144.561 135.9 145.161 134.55L154.986 137.55C153.636 140.5 151.386 142.95 148.236 144.9C145.136 146.8 141.436 147.75 137.136 147.75ZM184.72 144.975C183.37 145.575 181.695 146.175 179.695 146.775C177.745 147.375 175.72 147.675 173.62 147.675C171.77 147.675 170.07 147.35 168.52 146.7C166.97 146.05 165.72 145.025 164.77 143.625C163.87 142.175 163.42 140.3 163.42 138V115.425H158.245V107.7H163.42V94.95H173.47V107.7H181.72V115.425H173.47V134.625C173.47 135.975 173.82 136.95 174.52 137.55C175.27 138.15 176.17 138.45 177.22 138.45C178.27 138.45 179.295 138.275 180.295 137.925C181.295 137.575 182.095 137.275 182.695 137.025L184.72 144.975ZM189.579 132.3V107.7H199.629V130.125C199.629 136.175 201.804 139.2 206.154 139.2C208.104 139.2 209.979 138.625 211.779 137.475C213.629 136.275 215.129 134.475 216.279 132.075V107.7H226.329V135.75C226.329 136.85 226.504 137.625 226.854 138.075C227.204 138.475 227.829 138.725 228.729 138.825V147C227.729 147.2 226.879 147.325 226.179 147.375C225.529 147.425 224.929 147.45 224.379 147.45C222.579 147.45 221.104 147.05 219.954 146.25C218.854 145.4 218.204 144.25 218.004 142.8L217.779 139.65C216.029 142.35 213.779 144.375 211.029 145.725C208.279 147.075 205.254 147.75 201.954 147.75C197.904 147.75 194.829 146.45 192.729 143.85C190.629 141.2 189.579 137.35 189.579 132.3ZM233.617 135.375C233.617 132.825 234.317 130.6 235.717 128.7C237.167 126.75 239.167 125.25 241.717 124.2C244.267 123.15 247.192 122.625 250.492 122.625C252.142 122.625 253.817 122.775 255.517 123.075C257.217 123.325 258.692 123.7 259.942 124.2V122.1C259.942 119.6 259.192 117.675 257.692 116.325C256.242 114.975 254.067 114.3 251.167 114.3C249.017 114.3 246.967 114.675 245.017 115.425C243.067 116.175 241.017 117.275 238.867 118.725L235.642 112.125C238.242 110.425 240.892 109.15 243.592 108.3C246.342 107.45 249.217 107.025 252.217 107.025C257.817 107.025 262.167 108.425 265.267 111.225C268.417 114.025 269.992 118.025 269.992 123.225V135.75C269.992 136.85 270.167 137.625 270.517 138.075C270.867 138.475 271.492 138.725 272.392 138.825V147C271.492 147.2 270.667 147.325 269.917 147.375C269.217 147.475 268.617 147.525 268.117 147.525C266.117 147.525 264.592 147.075 263.542 146.175C262.492 145.275 261.867 144.175 261.667 142.875L261.442 140.85C259.692 143.1 257.542 144.825 254.992 146.025C252.492 147.175 249.917 147.75 247.267 147.75C244.617 147.75 242.267 147.225 240.217 146.175C238.167 145.075 236.542 143.6 235.342 141.75C234.192 139.85 233.617 137.725 233.617 135.375ZM258.067 137.4C259.317 136.2 259.942 135.05 259.942 133.95V129.975C257.342 128.925 254.717 128.4 252.067 128.4C249.417 128.4 247.267 128.975 245.617 130.125C243.967 131.225 243.142 132.7 243.142 134.55C243.142 136.05 243.742 137.4 244.942 138.6C246.142 139.8 247.867 140.4 250.117 140.4C251.617 140.4 253.067 140.125 254.467 139.575C255.917 139.025 257.117 138.3 258.067 137.4ZM279.308 92.25H289.358V134.4C289.358 136.25 289.658 137.475 290.258 138.075C290.858 138.675 291.683 138.975 292.733 138.975C293.533 138.975 294.358 138.875 295.208 138.675C296.058 138.475 296.808 138.225 297.458 137.925L298.808 145.575C297.458 146.225 295.883 146.725 294.083 147.075C292.283 147.425 290.658 147.6 289.208 147.6C286.058 147.6 283.608 146.775 281.858 145.125C280.158 143.425 279.308 141.025 279.308 137.925V92.25ZM303.187 102.225V92.25H313.237V102.225H303.187ZM303.187 147V107.7H313.237V147H303.187ZM345.853 144.975C344.503 145.575 342.828 146.175 340.828 146.775C338.878 147.375 336.853 147.675 334.753 147.675C332.903 147.675 331.203 147.35 329.653 146.7C328.103 146.05 326.853 145.025 325.903 143.625C325.003 142.175 324.553 140.3 324.553 138V115.425H319.378V107.7H324.553V94.95H334.603V107.7H342.853V115.425H334.603V134.625C334.603 135.975 334.953 136.95 335.653 137.55C336.403 138.15 337.303 138.45 338.353 138.45C339.403 138.45 340.428 138.275 341.428 137.925C342.428 137.575 343.228 137.275 343.828 137.025L345.853 144.975ZM368.8 147.75C364.55 147.75 360.875 146.825 357.775 144.975C354.725 143.125 352.35 140.675 350.65 137.625C348.95 134.525 348.1 131.175 348.1 127.575C348.1 123.875 348.925 120.475 350.575 117.375C352.275 114.225 354.675 111.725 357.775 109.875C360.875 107.975 364.575 107.025 368.875 107.025C373.175 107.025 376.85 107.975 379.9 109.875C382.95 111.725 385.275 114.2 386.875 117.3C388.525 120.35 389.35 123.65 389.35 127.2C389.35 128.5 389.275 129.625 389.125 130.575H358.75C359 133.625 360.125 136.025 362.125 137.775C364.175 139.525 366.525 140.4 369.175 140.4C371.175 140.4 373.05 139.925 374.8 138.975C376.6 137.975 377.825 136.675 378.475 135.075L387.1 137.475C385.65 140.475 383.325 142.95 380.125 144.9C376.925 146.8 373.15 147.75 368.8 147.75ZM358.525 124.2H379.075C378.775 121.25 377.65 118.875 375.7 117.075C373.8 115.225 371.475 114.3 368.725 114.3C366.025 114.3 363.7 115.225 361.75 117.075C359.85 118.875 358.775 121.25 358.525 124.2ZM372.025 103.125L365.575 101.175L369.625 92.25H379L372.025 103.125ZM409.947 147.75C406.597 147.75 403.397 147.2 400.347 146.1C397.297 145 394.672 143.375 392.472 141.225L396.072 134.7C398.422 136.6 400.722 138 402.972 138.9C405.222 139.8 407.422 140.25 409.572 140.25C411.522 140.25 413.072 139.9 414.222 139.2C415.422 138.5 416.022 137.45 416.022 136.05C416.022 134.6 415.297 133.625 413.847 133.125C412.397 132.575 410.372 131.9 407.772 131.1C404.872 130.2 402.447 129.275 400.497 128.325C398.547 127.375 397.072 126.225 396.072 124.875C395.122 123.525 394.647 121.775 394.647 119.625C394.647 115.775 396.097 112.7 398.997 110.4C401.897 108.1 405.747 106.95 410.547 106.95C413.347 106.95 415.997 107.4 418.497 108.3C420.997 109.15 423.272 110.55 425.322 112.5L421.272 118.875C417.422 115.875 413.697 114.375 410.097 114.375C408.497 114.375 407.072 114.675 405.822 115.275C404.622 115.875 404.022 116.925 404.022 118.425C404.022 119.825 404.597 120.825 405.747 121.425C406.947 122.025 408.747 122.675 411.147 123.375C414.247 124.325 416.872 125.25 419.022 126.15C421.222 127.05 422.872 128.2 423.972 129.6C425.122 131 425.697 132.9 425.697 135.3C425.697 139.2 424.272 142.25 421.422 144.45C418.572 146.65 414.747 147.75 409.947 147.75Z" fill="black"/>
</svg>
