<svg width="736" height="191" viewBox="0 0 736 191" fill="none" xmlns="http://www.w3.org/2000/svg">
<path d="M53.0172 3.99999H81.0172L133.217 146H104.817L91.6172 110.6H42.0172L29.0172 146H0.617188L53.0172 3.99999ZM86.6172 91.2L67.0172 32.6L46.6172 91.2H86.6172ZM184.263 146.6C174.929 146.6 166.729 144.2 159.663 139.4C152.596 134.6 147.063 128.2 143.063 120.2C139.063 112.067 137.063 103.2 137.063 93.6C137.063 83.4667 139.129 74.3333 143.263 66.2C147.396 57.9333 153.129 51.4 160.462 46.6C167.796 41.8 176.263 39.4 185.863 39.4C193.996 39.4 201.129 41.2667 207.263 45C213.396 48.6 218.463 53.4667 222.463 59.6V41.2H245.863V141C245.863 151.4 243.329 160.267 238.263 167.6C233.329 175.067 226.463 180.733 217.663 184.6C208.863 188.6 198.863 190.6 187.663 190.6C176.196 190.6 166.529 188.667 158.663 184.8C150.929 181.067 144.263 175.733 138.663 168.8L153.263 154.6C157.263 159.533 162.263 163.4 168.263 166.2C174.396 169 180.863 170.4 187.663 170.4C193.263 170.4 198.396 169.333 203.063 167.2C207.863 165.2 211.729 162 214.663 157.6C217.596 153.333 219.063 147.8 219.063 141V127.8C215.596 133.8 210.663 138.467 204.263 141.8C197.996 145 191.329 146.6 184.263 146.6ZM193.263 125.2C199.129 125.2 204.396 123.467 209.063 120C213.863 116.533 217.196 112.4 219.063 107.6V82.6C216.663 76.4667 212.863 71.5333 207.663 67.8C202.596 64.0667 197.263 62.2 191.663 62.2C186.196 62.2 181.396 63.7333 177.263 66.8C173.263 69.8667 170.129 73.8667 167.863 78.8C165.596 83.6 164.463 88.8 164.463 94.4C164.463 100.133 165.729 105.333 168.263 110C170.796 114.667 174.196 118.4 178.463 121.2C182.863 123.867 187.796 125.2 193.263 125.2ZM318.62 148C307.287 148 297.487 145.533 289.22 140.6C281.087 135.667 274.754 129.133 270.22 121C265.687 112.733 263.42 103.8 263.42 94.2C263.42 84.3333 265.62 75.2667 270.02 67C274.554 58.6 280.954 51.9333 289.22 47C297.487 41.9333 307.354 39.4 318.82 39.4C330.287 39.4 340.087 41.9333 348.22 47C356.354 51.9333 362.554 58.5333 366.82 66.8C371.22 74.9333 373.42 83.7333 373.42 93.2C373.42 96.6667 373.22 99.6667 372.82 102.2H291.82C292.487 110.333 295.487 116.733 300.82 121.4C306.287 126.067 312.554 128.4 319.62 128.4C324.954 128.4 329.954 127.133 334.62 124.6C339.42 121.933 342.687 118.467 344.42 114.2L367.42 120.6C363.554 128.6 357.354 135.2 348.82 140.4C340.287 145.467 330.22 148 318.62 148ZM291.22 85.2H346.02C345.22 77.3333 342.22 71 337.02 66.2C331.954 61.2667 325.754 58.8 318.42 58.8C311.22 58.8 305.02 61.2667 299.82 66.2C294.754 71 291.887 77.3333 291.22 85.2ZM487.147 146H460.347V87.2C460.347 78.8 458.88 72.6667 455.947 68.8C453.014 64.9333 448.947 63 443.747 63C440.147 63 436.48 63.9333 432.747 65.8C429.147 67.6667 425.88 70.2667 422.947 73.6C420.014 76.8 417.88 80.5333 416.547 84.8V146H389.747V41.2H413.947V60.6C417.814 54.0667 423.414 48.9333 430.747 45.2C438.08 41.3333 446.347 39.4 455.547 39.4C462.08 39.4 467.414 40.6 471.547 43C475.68 45.2667 478.88 48.4 481.147 52.4C483.414 56.2667 484.947 60.6667 485.747 65.6C486.68 70.5333 487.147 75.5333 487.147 80.6V146ZM504.05 93.6C504.05 83.6 506.05 74.4667 510.05 66.2C514.05 57.9333 519.583 51.4 526.65 46.6C533.717 41.8 541.783 39.4 550.85 39.4C558.583 39.4 565.517 41.3333 571.65 45.2C577.917 48.9333 582.783 53.7333 586.25 59.6V-3.8147e-06H613.05V116C613.05 118.933 613.517 121 614.45 122.2C615.383 123.267 616.983 123.933 619.25 124.2V146C614.45 146.933 610.65 147.4 607.85 147.4C603.05 147.4 599.05 146.2 595.85 143.8C592.783 141.4 591.05 138.267 590.65 134.4L590.25 127.8C586.383 134.333 581.117 139.333 574.45 142.8C567.917 146.267 561.05 148 553.85 148C544.117 148 535.517 145.6 528.05 140.8C520.583 135.867 514.717 129.333 510.45 121.2C506.183 112.933 504.05 103.733 504.05 93.6ZM586.25 107.6V82.6C584.117 76.7333 580.45 71.8667 575.25 68C570.05 64.1333 564.717 62.2 559.25 62.2C553.783 62.2 548.983 63.7333 544.85 66.8C540.717 69.7333 537.517 73.6667 535.25 78.6C532.983 83.4 531.85 88.6 531.85 94.2C531.85 99.9333 533.117 105.2 535.65 110C538.183 114.667 541.583 118.4 545.85 121.2C550.25 123.867 555.25 125.2 560.85 125.2C565.917 125.2 570.917 123.533 575.85 120.2C580.917 116.867 584.383 112.667 586.25 107.6ZM632.156 115C632.156 108.2 634.023 102.267 637.756 97.2C641.623 92 646.956 88 653.756 85.2C660.556 82.4 668.356 81 677.156 81C681.556 81 686.023 81.4 690.556 82.2C695.09 82.8667 699.023 83.8667 702.356 85.2V79.6C702.356 72.9333 700.356 67.8 696.356 64.2C692.49 60.6 686.69 58.8 678.956 58.8C673.223 58.8 667.756 59.8 662.556 61.8C657.356 63.8 651.89 66.7333 646.156 70.6L637.556 53C644.49 48.4667 651.556 45.0667 658.756 42.8C666.09 40.5333 673.756 39.4 681.756 39.4C696.69 39.4 708.29 43.1333 716.556 50.6C724.956 58.0667 729.156 68.7333 729.156 82.6V116C729.156 118.933 729.623 121 730.556 122.2C731.49 123.267 733.156 123.933 735.556 124.2V146C733.156 146.533 730.956 146.867 728.956 147C727.09 147.267 725.49 147.4 724.156 147.4C718.823 147.4 714.756 146.2 711.956 143.8C709.156 141.4 707.49 138.467 706.956 135L706.356 129.6C701.69 135.6 695.956 140.2 689.156 143.4C682.49 146.467 675.623 148 668.556 148C661.49 148 655.223 146.6 649.756 143.8C644.29 140.867 639.956 136.933 636.756 132C633.69 126.933 632.156 121.267 632.156 115ZM697.356 120.4C700.69 117.2 702.356 114.133 702.356 111.2V100.6C695.423 97.8 688.423 96.4 681.356 96.4C674.29 96.4 668.556 97.9333 664.156 101C659.756 103.933 657.556 107.867 657.556 112.8C657.556 116.8 659.156 120.4 662.356 123.6C665.556 126.8 670.156 128.4 676.156 128.4C680.156 128.4 684.023 127.667 687.756 126.2C691.623 124.733 694.823 122.8 697.356 120.4Z" fill="#F9F9FC"/>
<path d="M422.407 89.2H433.607L454.487 146H443.127L437.847 131.84H418.007L412.807 146H401.447L422.407 89.2ZM435.847 124.08L428.007 100.64L419.847 124.08H435.847ZM474.905 146.24C472.132 146.24 469.572 145.707 467.225 144.64C464.932 143.52 462.932 141.973 461.225 140C459.572 138.027 458.292 135.76 457.385 133.2C456.478 130.64 456.025 127.92 456.025 125.04C456.025 122 456.505 119.173 457.465 116.56C458.425 113.947 459.758 111.653 461.465 109.68C463.225 107.653 465.278 106.107 467.625 105.04C470.025 103.92 472.665 103.36 475.545 103.36C478.798 103.36 481.652 104.107 484.105 105.6C486.558 107.04 488.585 108.987 490.185 111.44V104.08H499.545V144C499.545 148.16 498.532 151.707 496.505 154.64C494.532 157.627 491.785 159.893 488.265 161.44C484.745 163.04 480.745 163.84 476.265 163.84C471.732 163.84 467.892 163.067 464.745 161.52C461.598 160.027 458.905 157.893 456.665 155.12L462.505 149.44C464.105 151.413 466.105 152.96 468.505 154.08C470.958 155.2 473.545 155.76 476.265 155.76C478.558 155.76 480.638 155.333 482.505 154.48C484.425 153.68 485.945 152.4 487.065 150.64C488.238 148.933 488.825 146.72 488.825 144V138.72C487.438 141.12 485.465 142.987 482.905 144.32C480.398 145.6 477.732 146.24 474.905 146.24ZM478.505 137.68C479.678 137.68 480.798 137.493 481.865 137.12C482.932 136.747 483.918 136.24 484.825 135.6C485.732 134.96 486.532 134.213 487.225 133.36C487.918 132.453 488.452 131.547 488.825 130.64V120.64C488.185 118.987 487.278 117.547 486.105 116.32C484.985 115.093 483.705 114.16 482.265 113.52C480.878 112.827 479.412 112.48 477.865 112.48C476.212 112.48 474.718 112.827 473.385 113.52C472.052 114.213 470.905 115.2 469.945 116.48C468.985 117.707 468.238 119.093 467.705 120.64C467.225 122.133 466.985 123.707 466.985 125.36C466.985 127.067 467.278 128.667 467.865 130.16C468.452 131.653 469.252 132.96 470.265 134.08C471.332 135.2 472.558 136.08 473.945 136.72C475.385 137.36 476.905 137.68 478.505 137.68ZM528.648 146.8C525.288 146.8 522.248 146.24 519.528 145.12C516.808 143.947 514.488 142.373 512.568 140.4C510.648 138.373 509.155 136.08 508.088 133.52C507.075 130.907 506.568 128.16 506.568 125.28C506.568 121.28 507.448 117.627 509.208 114.32C511.021 111.013 513.581 108.373 516.888 106.4C520.248 104.373 524.195 103.36 528.728 103.36C533.315 103.36 537.235 104.373 540.488 106.4C543.741 108.373 546.221 111.013 547.928 114.32C549.688 117.573 550.568 121.093 550.568 124.88C550.568 125.52 550.541 126.187 550.488 126.88C550.435 127.52 550.381 128.053 550.328 128.48H517.928C518.141 130.613 518.755 132.48 519.768 134.08C520.835 135.68 522.168 136.907 523.768 137.76C525.421 138.56 527.181 138.96 529.048 138.96C531.181 138.96 533.181 138.453 535.048 137.44C536.968 136.373 538.275 134.987 538.968 133.28L548.168 135.84C547.155 137.973 545.688 139.867 543.768 141.52C541.901 143.173 539.688 144.48 537.128 145.44C534.568 146.347 531.741 146.8 528.648 146.8ZM517.688 121.68H539.608C539.395 119.547 538.781 117.707 537.768 116.16C536.808 114.56 535.528 113.333 533.928 112.48C532.328 111.573 530.541 111.12 528.568 111.12C526.648 111.12 524.888 111.573 523.288 112.48C521.741 113.333 520.461 114.56 519.448 116.16C518.488 117.707 517.901 119.547 517.688 121.68ZM596.059 146H585.339V122.48C585.339 119.12 584.752 116.667 583.579 115.12C582.405 113.573 580.779 112.8 578.699 112.8C577.259 112.8 575.792 113.173 574.299 113.92C572.859 114.667 571.552 115.707 570.379 117.04C569.205 118.32 568.352 119.813 567.819 121.52V146H557.099V104.08H566.779V111.84C567.845 110.027 569.205 108.507 570.859 107.28C572.512 106 574.405 105.04 576.539 104.4C578.725 103.707 581.019 103.36 583.419 103.36C586.032 103.36 588.165 103.84 589.819 104.8C591.525 105.707 592.805 106.96 593.659 108.56C594.565 110.107 595.179 111.867 595.499 113.84C595.872 115.813 596.059 117.813 596.059 119.84V146ZM602.82 125.04C602.82 120.987 603.62 117.333 605.22 114.08C606.82 110.773 609.033 108.16 611.86 106.24C614.687 104.32 617.913 103.36 621.54 103.36C624.633 103.36 627.407 104.133 629.86 105.68C632.367 107.173 634.313 109.093 635.7 111.44V87.6H646.42V134C646.42 135.12 646.607 135.92 646.98 136.4C647.353 136.88 647.993 137.173 648.9 137.28V146C647.033 146.373 645.513 146.56 644.34 146.56C642.42 146.56 640.82 146.08 639.54 145.12C638.313 144.16 637.62 142.907 637.46 141.36L637.3 138.72C635.753 141.333 633.647 143.333 630.98 144.72C628.367 146.107 625.62 146.8 622.74 146.8C619.86 146.8 617.193 146.24 614.74 145.12C612.34 144 610.233 142.453 608.42 140.48C606.66 138.507 605.273 136.213 604.26 133.6C603.3 130.933 602.82 128.08 602.82 125.04ZM635.7 130.64V120.64C635.167 119.093 634.313 117.707 633.14 116.48C631.967 115.253 630.66 114.293 629.22 113.6C627.78 112.853 626.34 112.48 624.9 112.48C623.247 112.48 621.753 112.827 620.42 113.52C619.087 114.213 617.913 115.147 616.9 116.32C615.94 117.493 615.193 118.853 614.66 120.4C614.18 121.947 613.94 123.573 613.94 125.28C613.94 126.987 614.207 128.613 614.74 130.16C615.327 131.653 616.153 132.96 617.22 134.08C618.287 135.2 619.513 136.08 620.9 136.72C622.34 137.36 623.887 137.68 625.54 137.68C626.553 137.68 627.567 137.52 628.58 137.2C629.647 136.827 630.633 136.347 631.54 135.76C632.5 135.12 633.327 134.373 634.02 133.52C634.767 132.613 635.327 131.653 635.7 130.64ZM654.063 133.6C654.063 130.88 654.809 128.507 656.303 126.48C657.849 124.4 659.983 122.8 662.703 121.68C665.423 120.56 668.543 120 672.062 120C673.823 120 675.609 120.133 677.423 120.4C679.236 120.667 680.809 121.093 682.143 121.68V119.44C682.143 116.773 681.343 114.72 679.743 113.28C678.196 111.84 675.876 111.12 672.783 111.12C670.489 111.12 668.303 111.52 666.223 112.32C664.143 113.12 661.956 114.293 659.663 115.84L656.223 108.8C658.996 106.987 661.823 105.627 664.703 104.72C667.636 103.813 670.703 103.36 673.903 103.36C679.876 103.36 684.516 104.853 687.823 107.84C691.183 110.827 692.863 115.093 692.863 120.64V134C692.863 135.12 693.049 135.92 693.423 136.4C693.849 136.88 694.516 137.173 695.423 137.28V146C694.463 146.16 693.583 146.293 692.783 146.4C692.036 146.507 691.396 146.56 690.863 146.56C688.729 146.56 687.103 146.08 685.983 145.12C684.916 144.16 684.249 142.987 683.983 141.6L683.743 139.44C681.929 141.787 679.663 143.6 676.943 144.88C674.223 146.16 671.449 146.8 668.623 146.8C665.849 146.8 663.343 146.24 661.103 145.12C658.916 143.947 657.183 142.373 655.903 140.4C654.676 138.373 654.063 136.107 654.063 133.6ZM680.143 135.76C680.729 135.12 681.209 134.48 681.583 133.84C681.956 133.2 682.143 132.613 682.143 132.08V127.84C680.863 127.307 679.476 126.907 677.983 126.64C676.489 126.32 675.076 126.16 673.743 126.16C670.969 126.16 668.676 126.773 666.863 128C665.103 129.173 664.223 130.747 664.223 132.72C664.223 133.787 664.516 134.8 665.103 135.76C665.689 136.72 666.543 137.493 667.663 138.08C668.783 138.667 670.116 138.96 671.663 138.96C673.263 138.96 674.836 138.667 676.383 138.08C677.929 137.44 679.183 136.667 680.143 135.76Z" fill="black"/>
</svg>
