<svg width="1100" height="148" viewBox="0 0 1100 148" fill="none" xmlns="http://www.w3.org/2000/svg">
<path d="M0.815625 146V3.99999H52.4156C67.8823 3.99999 80.8156 7.19999 91.2156 13.6C101.616 19.8667 109.416 28.4 114.616 39.2C119.816 49.8667 122.416 61.7333 122.416 74.8C122.416 89.2 119.549 101.733 113.816 112.4C108.082 123.067 99.949 131.333 89.4156 137.2C78.8823 143.067 66.549 146 52.4156 146H0.815625ZM94.6156 74.8C94.6156 65.6 92.949 57.5333 89.6156 50.6C86.2823 43.5333 81.4823 38.0667 75.2156 34.2C68.949 30.2 61.349 28.2 52.4156 28.2H28.4156V121.8H52.4156C61.4823 121.8 69.149 119.8 75.4156 115.8C81.6823 111.667 86.4156 106.067 89.6156 99C92.949 91.8 94.6156 83.7333 94.6156 74.8ZM189.98 148C178.646 148 168.846 145.533 160.58 140.6C152.446 135.667 146.113 129.133 141.58 121C137.046 112.733 134.78 103.8 134.78 94.2C134.78 84.3333 136.98 75.2667 141.38 67C145.913 58.6 152.313 51.9333 160.58 47C168.846 41.9333 178.713 39.4 190.18 39.4C201.646 39.4 211.446 41.9333 219.58 47C227.713 51.9333 233.913 58.5333 238.18 66.8C242.58 74.9333 244.78 83.7333 244.78 93.2C244.78 96.6667 244.58 99.6667 244.18 102.2H163.18C163.846 110.333 166.846 116.733 172.18 121.4C177.646 126.067 183.913 128.4 190.98 128.4C196.313 128.4 201.313 127.133 205.98 124.6C210.78 121.933 214.046 118.467 215.78 114.2L238.78 120.6C234.913 128.6 228.713 135.2 220.18 140.4C211.646 145.467 201.58 148 189.98 148ZM162.58 85.2H217.38C216.58 77.3333 213.58 71 208.38 66.2C203.313 61.2667 197.113 58.8 189.78 58.8C182.58 58.8 176.38 61.2667 171.18 66.2C166.113 71 163.246 77.3333 162.58 85.2ZM198.58 29L181.38 23.8L192.18 -3.8147e-06H217.18L198.58 29ZM309.906 148C298.573 148 288.773 145.467 280.506 140.4C272.24 135.333 265.84 128.667 261.306 120.4C256.773 112.133 254.506 103.2 254.506 93.6C254.506 83.8667 256.706 74.8667 261.106 66.6C265.64 58.3333 272.04 51.7333 280.306 46.8C288.573 41.8667 298.373 39.4 309.706 39.4C321.173 39.4 330.906 41.8667 338.906 46.8C347.04 51.7333 353.106 58.2 357.106 66.2L330.906 74.2C326.24 66.2 319.106 62.2 309.506 62.2C304.306 62.2 299.64 63.5333 295.506 66.2C291.373 68.7333 288.106 72.4 285.706 77.2C283.306 81.8667 282.106 87.3333 282.106 93.6C282.106 99.7333 283.306 105.2 285.706 110C288.24 114.667 291.573 118.4 295.706 121.2C299.84 123.867 304.44 125.2 309.506 125.2C314.306 125.2 318.706 124.067 322.706 121.8C326.84 119.4 329.706 116.4 331.306 112.8L357.506 120.8C353.906 128.667 347.906 135.2 339.506 140.4C331.24 145.467 321.373 148 309.906 148ZM421.42 148C409.954 148 400.087 145.533 391.82 140.6C383.687 135.533 377.42 128.867 373.02 120.6C368.62 112.333 366.42 103.4 366.42 93.8C366.42 84.0667 368.62 75.0667 373.02 66.8C377.554 58.5333 383.887 51.9333 392.02 47C400.287 41.9333 410.087 39.4 421.42 39.4C432.754 39.4 442.487 41.9333 450.62 47C458.887 51.9333 465.22 58.5333 469.62 66.8C474.02 75.0667 476.22 84.0667 476.22 93.8C476.22 103.4 474.02 112.333 469.62 120.6C465.22 128.867 458.887 135.533 450.62 140.6C442.487 145.533 432.754 148 421.42 148ZM394.02 93.8C394.02 99.9333 395.22 105.4 397.62 110.2C400.02 114.867 403.287 118.533 407.42 121.2C411.554 123.867 416.22 125.2 421.42 125.2C426.487 125.2 431.087 123.867 435.22 121.2C439.354 118.4 442.62 114.667 445.02 110C447.554 105.2 448.82 99.7333 448.82 93.6C448.82 87.6 447.554 82.2667 445.02 77.6C442.62 72.8 439.354 69.0667 435.22 66.4C431.087 63.6 426.487 62.2 421.42 62.2C416.22 62.2 411.554 63.6 407.42 66.4C403.287 69.0667 400.02 72.8 397.62 77.6C395.22 82.2667 394.02 87.6667 394.02 93.8ZM493.309 106.8V41.2H520.109V101C520.109 117.133 525.909 125.2 537.509 125.2C542.709 125.2 547.709 123.667 552.509 120.6C557.443 117.4 561.443 112.6 564.509 106.2V41.2H591.309V116C591.309 118.933 591.776 121 592.709 122.2C593.643 123.267 595.309 123.933 597.709 124.2V146C595.043 146.533 592.776 146.867 590.909 147C589.176 147.133 587.576 147.2 586.109 147.2C581.309 147.2 577.376 146.133 574.309 144C571.376 141.733 569.643 138.667 569.109 134.8L568.509 126.4C563.843 133.6 557.843 139 550.509 142.6C543.176 146.2 535.109 148 526.309 148C515.509 148 507.309 144.533 501.709 137.6C496.109 130.533 493.309 120.267 493.309 106.8ZM645.752 146L607.152 41.2H634.952L661.352 121.6L687.952 41.2H713.352L674.952 146H645.752ZM772.597 148C761.264 148 751.464 145.533 743.197 140.6C735.064 135.667 728.73 129.133 724.197 121C719.664 112.733 717.397 103.8 717.397 94.2C717.397 84.3333 719.597 75.2667 723.997 67C728.53 58.6 734.93 51.9333 743.197 47C751.464 41.9333 761.33 39.4 772.797 39.4C784.264 39.4 794.064 41.9333 802.197 47C810.33 51.9333 816.53 58.5333 820.797 66.8C825.197 74.9333 827.397 83.7333 827.397 93.2C827.397 96.6667 827.197 99.6667 826.797 102.2H745.797C746.464 110.333 749.464 116.733 754.797 121.4C760.264 126.067 766.53 128.4 773.597 128.4C778.93 128.4 783.93 127.133 788.597 124.6C793.397 121.933 796.664 118.467 798.397 114.2L821.397 120.6C817.53 128.6 811.33 135.2 802.797 140.4C794.264 145.467 784.197 148 772.597 148ZM745.197 85.2H799.997C799.197 77.3333 796.197 71 790.997 66.2C785.93 61.2667 779.73 58.8 772.397 58.8C765.197 58.8 758.997 61.2667 753.797 66.2C748.73 71 745.864 77.3333 745.197 85.2ZM906.123 64.4C897.99 64.4 890.723 66 884.323 69.2C877.923 72.2667 873.323 76.7333 870.523 82.6V146H843.723V41.2H868.323V63.6C871.923 56.4 876.59 50.7333 882.323 46.6C888.19 42.4667 894.323 40.2 900.723 39.8C903.523 39.8 905.323 39.8667 906.123 40V64.4ZM983.867 140.6C980.267 142.2 975.801 143.8 970.467 145.4C965.267 147 959.867 147.8 954.267 147.8C949.334 147.8 944.801 146.933 940.667 145.2C936.534 143.467 933.201 140.733 930.667 137C928.267 133.133 927.067 128.133 927.067 122V61.8H913.267V41.2H927.067V7.2H953.867V41.2H975.867V61.8H953.867V113C953.867 116.6 954.801 119.2 956.667 120.8C958.667 122.4 961.067 123.2 963.867 123.2C966.667 123.2 969.401 122.733 972.067 121.8C974.734 120.867 976.867 120.067 978.467 119.4L983.867 140.6ZM1045.06 148C1033.72 148 1023.92 145.533 1015.66 140.6C1007.52 135.667 1001.19 129.133 996.658 121C992.124 112.733 989.858 103.8 989.858 94.2C989.858 84.3333 992.058 75.2667 996.458 67C1000.99 58.6 1007.39 51.9333 1015.66 47C1023.92 41.9333 1033.79 39.4 1045.26 39.4C1056.72 39.4 1066.52 41.9333 1074.66 47C1082.79 51.9333 1088.99 58.5333 1093.26 66.8C1097.66 74.9333 1099.86 83.7333 1099.86 93.2C1099.86 96.6667 1099.66 99.6667 1099.26 102.2H1018.26C1018.92 110.333 1021.92 116.733 1027.26 121.4C1032.72 126.067 1038.99 128.4 1046.06 128.4C1051.39 128.4 1056.39 127.133 1061.06 124.6C1065.86 121.933 1069.12 118.467 1070.86 114.2L1093.86 120.6C1089.99 128.6 1083.79 135.2 1075.26 140.4C1066.72 145.467 1056.66 148 1045.06 148ZM1017.66 85.2H1072.46C1071.66 77.3333 1068.66 71 1063.46 66.2C1058.39 61.2667 1052.19 58.8 1044.86 58.8C1037.66 58.8 1031.46 61.2667 1026.26 66.2C1021.19 71 1018.32 77.3333 1017.66 85.2Z" fill="#F9F9FC"/>
</svg>
