<svg width="587" height="149" viewBox="0 0 587 149" fill="none" xmlns="http://www.w3.org/2000/svg">
<path d="M116.377 146V52.8L79.9773 122.2H64.5773L28.1773 52.8V146H0.577344V3.99999H30.1773L72.1773 84.8L114.577 3.99999H143.977V146H116.377ZM217.866 148C206.533 148 196.733 145.533 188.466 140.6C180.333 135.667 174 129.133 169.466 121C164.933 112.733 162.666 103.8 162.666 94.2C162.666 84.3333 164.866 75.2667 169.266 67C173.8 58.6 180.2 51.9333 188.466 47C196.733 41.9333 206.6 39.4 218.066 39.4C229.533 39.4 239.333 41.9333 247.466 47C255.6 51.9333 261.8 58.5333 266.066 66.8C270.466 74.9333 272.666 83.7333 272.666 93.2C272.666 96.6667 272.466 99.6667 272.066 102.2H191.066C191.733 110.333 194.733 116.733 200.066 121.4C205.533 126.067 211.8 128.4 218.866 128.4C224.2 128.4 229.2 127.133 233.866 124.6C238.666 121.933 241.933 118.467 243.666 114.2L266.666 120.6C262.8 128.6 256.6 135.2 248.066 140.4C239.533 145.467 229.466 148 217.866 148ZM190.466 85.2H245.266C244.466 77.3333 241.466 71 236.266 66.2C231.2 61.2667 225 58.8 217.666 58.8C210.466 58.8 204.266 61.2667 199.066 66.2C194 71 191.133 77.3333 190.466 85.2ZM226.466 29L209.266 23.8L220.066 -3.8147e-06H245.066L226.466 29ZM350.816 140.6C347.216 142.2 342.75 143.8 337.416 145.4C332.216 147 326.816 147.8 321.216 147.8C316.283 147.8 311.75 146.933 307.616 145.2C303.483 143.467 300.15 140.733 297.616 137C295.216 133.133 294.016 128.133 294.016 122V61.8H280.216V41.2H294.016V7.2H320.816V41.2H342.816V61.8H320.816V113C320.816 116.6 321.75 119.2 323.616 120.8C325.616 122.4 328.016 123.2 330.816 123.2C333.616 123.2 336.35 122.733 339.016 121.8C341.683 120.867 343.816 120.067 345.416 119.4L350.816 140.6ZM412.007 148C400.674 148 390.874 145.533 382.607 140.6C374.474 135.667 368.14 129.133 363.607 121C359.074 112.733 356.807 103.8 356.807 94.2C356.807 84.3333 359.007 75.2667 363.407 67C367.94 58.6 374.34 51.9333 382.607 47C390.874 41.9333 400.74 39.4 412.207 39.4C423.674 39.4 433.474 41.9333 441.607 47C449.74 51.9333 455.94 58.5333 460.207 66.8C464.607 74.9333 466.807 83.7333 466.807 93.2C466.807 96.6667 466.607 99.6667 466.207 102.2H385.207C385.874 110.333 388.874 116.733 394.207 121.4C399.674 126.067 405.94 128.4 413.007 128.4C418.34 128.4 423.34 127.133 428.007 124.6C432.807 121.933 436.074 118.467 437.807 114.2L460.807 120.6C456.94 128.6 450.74 135.2 442.207 140.4C433.674 145.467 423.607 148 412.007 148ZM384.607 85.2H439.407C438.607 77.3333 435.607 71 430.407 66.2C425.34 61.2667 419.14 58.8 411.807 58.8C404.607 58.8 398.407 61.2667 393.207 66.2C388.14 71 385.274 77.3333 384.607 85.2ZM420.607 29L403.407 23.8L414.207 -3.8147e-06H439.207L420.607 29ZM531.534 148C520.067 148 510.2 145.533 501.934 140.6C493.8 135.533 487.534 128.867 483.134 120.6C478.734 112.333 476.534 103.4 476.534 93.8C476.534 84.0667 478.734 75.0667 483.134 66.8C487.667 58.5333 494 51.9333 502.134 47C510.4 41.9333 520.2 39.4 531.534 39.4C542.867 39.4 552.6 41.9333 560.734 47C569 51.9333 575.334 58.5333 579.734 66.8C584.134 75.0667 586.334 84.0667 586.334 93.8C586.334 103.4 584.134 112.333 579.734 120.6C575.334 128.867 569 135.533 560.734 140.6C552.6 145.533 542.867 148 531.534 148ZM504.134 93.8C504.134 99.9333 505.334 105.4 507.734 110.2C510.134 114.867 513.4 118.533 517.534 121.2C521.667 123.867 526.334 125.2 531.534 125.2C536.6 125.2 541.2 123.867 545.334 121.2C549.467 118.4 552.734 114.667 555.134 110C557.667 105.2 558.934 99.7333 558.934 93.6C558.934 87.6 557.667 82.2667 555.134 77.6C552.734 72.8 549.467 69.0667 545.334 66.4C541.2 63.6 536.6 62.2 531.534 62.2C526.334 62.2 521.667 63.6 517.534 66.4C513.4 69.0667 510.134 72.8 507.734 77.6C505.334 82.2667 504.134 87.6667 504.134 93.8Z" fill="#F9F9FC"/>
<path d="M224.951 148V110.72L210.391 138.48H204.231L189.671 110.72V148H178.631V91.2H190.471L207.271 123.52L224.231 91.2H235.991V148H224.951ZM265.547 148.8C261.013 148.8 257.093 147.813 253.787 145.84C250.533 143.867 248 141.253 246.187 138C244.373 134.693 243.467 131.12 243.467 127.28C243.467 123.333 244.347 119.707 246.107 116.4C247.92 113.04 250.48 110.373 253.787 108.4C257.093 106.373 261.04 105.36 265.627 105.36C270.213 105.36 274.133 106.373 277.387 108.4C280.64 110.373 283.12 113.013 284.827 116.32C286.587 119.573 287.467 123.093 287.467 126.88C287.467 128.267 287.387 129.467 287.227 130.48H254.827C255.093 133.733 256.293 136.293 258.427 138.16C260.613 140.027 263.12 140.96 265.947 140.96C268.08 140.96 270.08 140.453 271.947 139.44C273.867 138.373 275.173 136.987 275.867 135.28L285.067 137.84C283.52 141.04 281.04 143.68 277.627 145.76C274.213 147.787 270.187 148.8 265.547 148.8ZM254.587 123.68H276.507C276.187 120.533 274.987 118 272.907 116.08C270.88 114.107 268.4 113.12 265.467 113.12C262.587 113.12 260.107 114.107 258.027 116.08C256 118 254.853 120.533 254.587 123.68ZM268.987 101.2L262.107 99.12L266.427 89.6H276.427L268.987 101.2ZM318.727 145.84C317.287 146.48 315.5 147.12 313.367 147.76C311.287 148.4 309.127 148.72 306.887 148.72C304.913 148.72 303.1 148.373 301.447 147.68C299.793 146.987 298.46 145.893 297.447 144.4C296.487 142.853 296.007 140.853 296.007 138.4V114.32H290.487V106.08H296.007V92.48H306.727V106.08H315.527V114.32H306.727V134.8C306.727 136.24 307.1 137.28 307.847 137.92C308.647 138.56 309.607 138.88 310.727 138.88C311.847 138.88 312.94 138.693 314.007 138.32C315.073 137.947 315.927 137.627 316.567 137.36L318.727 145.84ZM343.203 148.8C338.669 148.8 334.749 147.813 331.443 145.84C328.189 143.867 325.656 141.253 323.843 138C322.029 134.693 321.123 131.12 321.123 127.28C321.123 123.333 322.003 119.707 323.763 116.4C325.576 113.04 328.136 110.373 331.443 108.4C334.749 106.373 338.696 105.36 343.283 105.36C347.869 105.36 351.789 106.373 355.043 108.4C358.296 110.373 360.776 113.013 362.483 116.32C364.243 119.573 365.123 123.093 365.123 126.88C365.123 128.267 365.043 129.467 364.883 130.48H332.483C332.749 133.733 333.949 136.293 336.083 138.16C338.269 140.027 340.776 140.96 343.603 140.96C345.736 140.96 347.736 140.453 349.603 139.44C351.523 138.373 352.829 136.987 353.523 135.28L362.723 137.84C361.176 141.04 358.696 143.68 355.283 145.76C351.869 147.787 347.843 148.8 343.203 148.8ZM332.243 123.68H354.163C353.843 120.533 352.643 118 350.563 116.08C348.536 114.107 346.056 113.12 343.123 113.12C340.243 113.12 337.763 114.107 335.683 116.08C333.656 118 332.509 120.533 332.243 123.68ZM346.643 101.2L339.763 99.12L344.083 89.6H354.083L346.643 101.2ZM391.013 148.8C386.427 148.8 382.48 147.813 379.173 145.84C375.92 143.813 373.413 141.147 371.653 137.84C369.893 134.533 369.013 130.96 369.013 127.12C369.013 123.227 369.893 119.627 371.653 116.32C373.467 113.013 376 110.373 379.253 108.4C382.56 106.373 386.48 105.36 391.013 105.36C395.547 105.36 399.44 106.373 402.693 108.4C406 110.373 408.533 113.013 410.293 116.32C412.053 119.627 412.933 123.227 412.933 127.12C412.933 130.96 412.053 134.533 410.293 137.84C408.533 141.147 406 143.813 402.693 145.84C399.44 147.813 395.547 148.8 391.013 148.8ZM380.053 127.12C380.053 129.573 380.533 131.76 381.493 133.68C382.453 135.547 383.76 137.013 385.413 138.08C387.067 139.147 388.933 139.68 391.013 139.68C393.04 139.68 394.88 139.147 396.533 138.08C398.187 136.96 399.493 135.467 400.453 133.6C401.467 131.68 401.973 129.493 401.973 127.04C401.973 124.64 401.467 122.507 400.453 120.64C399.493 118.72 398.187 117.227 396.533 116.16C394.88 115.04 393.04 114.48 391.013 114.48C388.933 114.48 387.067 115.04 385.413 116.16C383.76 117.227 382.453 118.72 381.493 120.64C380.533 122.507 380.053 124.667 380.053 127.12Z" fill="black"/>
</svg>
