<svg width="1119" height="144" viewBox="0 0 1119 144" fill="none" xmlns="http://www.w3.org/2000/svg">
<path d="M116.362 142V48.8L79.9617 118.2H64.5617L28.1617 48.8V142H0.561719V-7.62939e-06H30.1617L72.1617 80.8L114.562 -7.62939e-06H143.962V142H116.362ZM217.651 144C209.117 144 201.451 142.6 194.651 139.8C187.851 136.867 182.051 132.867 177.251 127.8C172.584 122.733 168.984 116.933 166.451 110.4C163.917 103.867 162.651 97 162.651 89.8C162.651 82.4667 163.917 75.5333 166.451 69C168.984 62.4667 172.584 56.6667 177.251 51.6C182.051 46.5333 187.851 42.6 194.651 39.8C201.451 36.8667 209.117 35.4 217.651 35.4C226.184 35.4 233.784 36.8667 240.451 39.8C247.251 42.6 253.051 46.5333 257.851 51.6C262.651 56.6667 266.251 62.4667 268.651 69C271.184 75.5333 272.451 82.4667 272.451 89.8C272.451 97 271.184 103.867 268.651 110.4C266.251 116.933 262.651 122.733 257.851 127.8C253.184 132.867 247.451 136.867 240.651 139.8C233.851 142.6 226.184 144 217.651 144ZM190.251 89.8C190.251 95.9333 191.451 101.4 193.851 106.2C196.251 110.867 199.517 114.533 203.651 117.2C207.784 119.867 212.451 121.2 217.651 121.2C222.717 121.2 227.317 119.867 231.451 117.2C235.584 114.4 238.851 110.667 241.251 106C243.784 101.2 245.051 95.7333 245.051 89.6C245.051 83.6 243.784 78.2 241.251 73.4C238.851 68.6 235.584 64.8667 231.451 62.2C227.317 59.5333 222.717 58.2 217.651 58.2C212.451 58.2 207.784 59.6 203.651 62.4C199.517 65.0667 196.251 68.8 193.851 73.6C191.451 78.2667 190.251 83.6667 190.251 89.8ZM387.94 142H361.14V83.2C361.14 74.8 359.673 68.6667 356.74 64.8C353.807 60.9333 349.74 59 344.54 59C340.94 59 337.273 59.9333 333.54 61.8C329.94 63.6667 326.673 66.2667 323.74 69.6C320.807 72.8 318.673 76.5333 317.34 80.8V142H290.54V37.2H314.74V56.6C317.407 52.0667 320.807 48.2667 324.94 45.2C329.073 42 333.807 39.6 339.14 38C344.607 36.2667 350.34 35.4 356.34 35.4C362.873 35.4 368.207 36.6 372.34 39C376.607 41.2667 379.807 44.4 381.94 48.4C384.207 52.2667 385.74 56.6667 386.54 61.6C387.473 66.5333 387.94 71.5333 387.94 76.6V142ZM410.243 102.8V37.2H437.043V97C437.043 105 438.51 111.067 441.443 115.2C444.376 119.2 448.71 121.2 454.443 121.2C457.91 121.2 461.31 120.533 464.643 119.2C468.11 117.733 471.243 115.6 474.043 112.8C476.976 110 479.443 106.467 481.443 102.2V37.2H508.243V112C508.243 114.8 508.71 116.8 509.643 118C510.71 119.2 512.376 119.933 514.643 120.2V142C511.976 142.4 509.71 142.667 507.843 142.8C506.11 143.067 504.51 143.2 503.043 143.2C498.243 143.2 494.31 142.133 491.243 140C488.31 137.733 486.576 134.667 486.043 130.8L485.443 122.4C480.776 129.467 474.776 134.867 467.443 138.6C460.11 142.2 452.043 144 443.243 144C432.443 144 424.243 140.533 418.643 133.6C413.043 126.533 410.243 116.267 410.243 102.8ZM697.676 142H670.876V83.2C670.876 74.9333 669.409 68.8667 666.476 65C663.676 61 659.742 59 654.676 59C649.476 59 644.476 61.0667 639.676 65.2C635.009 69.2 631.676 74.4667 629.676 81V142H602.876V83.2C602.876 74.8 601.409 68.6667 598.476 64.8C595.676 60.9333 591.742 59 586.676 59C581.476 59 576.476 61 571.676 65C567.009 69 563.676 74.2667 561.676 80.8V142H534.876V37.2H559.076V56.6C563.076 49.8 568.409 44.6 575.076 41C581.742 37.2667 589.409 35.4 598.076 35.4C606.742 35.4 613.476 37.5333 618.276 41.8C623.209 46.0667 626.342 51.3333 627.676 57.6C631.942 50.4 637.342 44.9333 643.876 41.2C650.542 37.3333 658.009 35.4 666.276 35.4C672.809 35.4 678.076 36.6 682.076 39C686.209 41.2667 689.409 44.4 691.676 48.4C693.942 52.2667 695.476 56.6667 696.276 61.6C697.209 66.5333 697.676 71.5333 697.676 76.6V142ZM769.609 144C761.209 144 753.609 142.6 746.809 139.8C740.009 136.867 734.209 132.933 729.409 128C724.609 122.933 720.875 117.2 718.209 110.8C715.675 104.267 714.409 97.4 714.409 90.2C714.409 80.2 716.609 71.0667 721.009 62.8C725.542 54.5333 731.942 47.9333 740.209 43C748.609 37.9333 758.475 35.4 769.809 35.4C781.275 35.4 791.075 37.9333 799.209 43C807.342 47.9333 813.542 54.5333 817.809 62.8C822.209 70.9333 824.409 79.7333 824.409 89.2C824.409 90.8 824.342 92.4667 824.209 94.2C824.075 95.8 823.942 97.1333 823.809 98.2H742.809C743.342 103.533 744.875 108.2 747.409 112.2C750.075 116.2 753.409 119.267 757.409 121.4C761.542 123.4 765.942 124.4 770.609 124.4C775.942 124.4 780.942 123.133 785.609 120.6C790.409 117.933 793.675 114.467 795.409 110.2L818.409 116.6C815.875 121.933 812.209 126.667 807.409 130.8C802.742 134.933 797.209 138.2 790.809 140.6C784.409 142.867 777.342 144 769.609 144ZM742.209 81.2H797.009C796.475 75.8667 794.942 71.2667 792.409 67.4C790.009 63.4 786.809 60.3333 782.809 58.2C778.809 55.9333 774.342 54.8 769.409 54.8C764.609 54.8 760.209 55.9333 756.209 58.2C752.342 60.3333 749.142 63.4 746.609 67.4C744.209 71.2667 742.742 75.8667 742.209 81.2ZM938.135 142H911.335V83.2C911.335 74.8 909.868 68.6667 906.935 64.8C904.002 60.9333 899.935 59 894.735 59C891.135 59 887.468 59.9333 883.735 61.8C880.135 63.6667 876.868 66.2667 873.935 69.6C871.002 72.8 868.868 76.5333 867.535 80.8V142H840.735V37.2H864.935V56.6C867.602 52.0667 871.002 48.2667 875.135 45.2C879.268 42 884.002 39.6 889.335 38C894.802 36.2667 900.535 35.4 906.535 35.4C913.068 35.4 918.402 36.6 922.535 39C926.802 41.2667 930.002 44.4 932.135 48.4C934.402 52.2667 935.935 56.6667 936.735 61.6C937.668 66.5333 938.135 71.5333 938.135 76.6V142ZM1023.65 136.6C1021.39 137.533 1018.65 138.6 1015.45 139.8C1012.25 141 1008.79 141.933 1005.05 142.6C1001.45 143.4 997.786 143.8 994.052 143.8C989.119 143.8 984.586 142.933 980.452 141.2C976.319 139.467 972.986 136.733 970.452 133C968.052 129.133 966.852 124.133 966.852 118V57.8H953.052V37.2H966.852V3.2H993.652V37.2H1015.65V57.8H993.652V109C993.786 112.6 994.786 115.2 996.652 116.8C998.519 118.4 1000.85 119.2 1003.65 119.2C1006.45 119.2 1009.19 118.733 1011.85 117.8C1014.52 116.867 1016.65 116.067 1018.25 115.4L1023.65 136.6ZM1076.21 144C1067.28 144 1058.74 142.533 1050.61 139.6C1042.48 136.667 1035.48 132.333 1029.61 126.6L1039.21 109.2C1045.48 114.267 1051.61 118 1057.61 120.4C1063.74 122.8 1069.61 124 1075.21 124C1080.41 124 1084.54 123.067 1087.61 121.2C1090.81 119.333 1092.41 116.533 1092.41 112.8C1092.41 110.267 1091.54 108.333 1089.81 107C1088.08 105.533 1085.54 104.267 1082.21 103.2C1079.01 102.133 1075.08 100.933 1070.41 99.6C1062.68 97.0667 1056.21 94.6 1051.01 92.2C1045.81 89.8 1041.88 86.8 1039.21 83.2C1036.68 79.4667 1035.41 74.7333 1035.41 69C1035.41 62.0667 1037.14 56.1333 1040.61 51.2C1044.21 46.1333 1049.14 42.2 1055.41 39.4C1061.81 36.6 1069.28 35.2 1077.81 35.2C1085.28 35.2 1092.34 36.4 1099.01 38.8C1105.68 41.0667 1111.74 44.8 1117.21 50L1106.41 67C1101.08 62.8667 1096.01 59.8667 1091.21 58C1086.41 56 1081.54 55 1076.61 55C1073.81 55 1071.14 55.3333 1068.61 56C1066.21 56.6667 1064.21 57.8 1062.61 59.4C1061.14 60.8667 1060.41 63 1060.41 65.8C1060.41 68.3333 1061.08 70.3333 1062.41 71.8C1063.88 73.1333 1066.01 74.3333 1068.81 75.4C1071.74 76.4667 1075.28 77.6667 1079.41 79C1087.81 81.4 1094.88 83.8667 1100.61 86.4C1106.48 88.9333 1110.88 92.0667 1113.81 95.8C1116.74 99.4 1118.21 104.4 1118.21 110.8C1118.21 121.2 1114.41 129.333 1106.81 135.2C1099.21 141.067 1089.01 144 1076.21 144Z" fill="#F9F9FC"/>
</svg>
