<svg width="1322" height="526" viewBox="0 0 1322 526" fill="none" xmlns="http://www.w3.org/2000/svg">
<path d="M1318.95 343.653L1274.63 357.283C1272.9 357.812 1272.7 359.732 1274.13 360.55L1282.61 365.359L1311.48 350.359C1312.03 350.068 1312.58 350.737 1312.09 351.099L1286.59 369.759L1285.31 375.789C1284.93 377.557 1287.24 378.647 1288.73 377.559L1295.45 372.646L1305.39 378.277C1306.52 378.922 1308.06 378.479 1308.53 377.369L1321.63 346.002C1322.25 344.536 1320.61 343.143 1318.95 343.653Z" fill="#9BC090"/>
<path d="M30.7149 2C30.7149 2 -6.28515 29.5 3.71485 77C13.7149 124.5 50.7149 130.5 50.7149 130.5C50.7149 130.5 85.2148 134.5 94.2148 121.5C103.215 108.5 102.215 93 95.7148 85.5C89.2149 78 71.7149 78.5 59.2149 100C46.7148 121.5 54.7149 142.5 60.7148 161.5C66.7147 180.5 74.7148 191.5 87.2148 205.5C99.7147 219.5 119.715 235 133.715 240.5C147.715 246 185.715 253 202.215 254C218.715 255 247.5 257.5 297.215 259" stroke="#BDBDBD" stroke-width="3" stroke-linecap="round" stroke-dasharray="12 12"/>
<path d="M687 445C687 445 862.5 408 940 401C1017.5 394 1043 401.5 1059 414C1075 426.5 1085.96 444.5 1082.5 484C1079.04 523.5 1055.5 524.5 1044 523.5C1032.5 522.5 1014.5 506.5 1038 467.5C1061.5 428.5 1113 415.5 1136.5 411C1160 406.5 1203.5 406.5 1230 401C1256.5 395.5 1279 380.5 1279 380.5" stroke="#BDBDBD" stroke-width="3" stroke-linecap="round" stroke-dasharray="12 12"/>
<path d="M295 259C423.5 262.5 500.5 338 571.5 316.5C595 302.5 605.5 293 612 278C618.5 263 608.5 237.5 582.5 231C556.5 224.5 526 239.5 509.5 264.5C493 289.5 434.5 382 434.5 382C434.5 382 393 445.381 367 459C341 472.619 302 462 290 448C278 434 260.5 409 295 378.5C329.5 348 438 408 456.5 415.5C475 423 523.5 448 588 452.5C652.5 457 684.5 445 691.5 444" stroke="#BDBDBD" stroke-width="3" stroke-linecap="round" stroke-dasharray="12 12"/>
</svg>
