<svg width="1072" height="152" viewBox="0 0 1072 152" fill="none" xmlns="http://www.w3.org/2000/svg">
<path d="M0.8 146V3.99999H61C67.5333 3.99999 73.5333 5.33332 79 7.99999C84.6 10.6667 89.4 14.2667 93.4 18.8C97.4 23.3333 100.533 28.4 102.8 34C105.067 39.6 106.2 45.3333 106.2 51.2C106.2 59.2 104.333 66.8 100.6 74C96.8667 81.2 91.6667 87.0667 85 91.6C78.4667 96.1333 70.8 98.4 62 98.4H28.4V146H0.8ZM28.4 74.2H60.4C65.4667 74.2 69.6667 72.1333 73 68C76.4667 63.7333 78.2 58.1333 78.2 51.2C78.2 43.8667 76.2667 38.2 72.4 34.2C68.5333 30.2 64.1333 28.2 59.2 28.2H28.4V74.2ZM114.242 115C114.242 108.2 116.109 102.267 119.842 97.2C123.709 92 129.042 88 135.842 85.2C142.642 82.4 150.442 81 159.242 81C163.642 81 168.109 81.4 172.642 82.2C177.176 82.8667 181.109 83.8667 184.442 85.2V79.6C184.442 72.9333 182.442 67.8 178.442 64.2C174.576 60.6 168.776 58.8 161.042 58.8C155.309 58.8 149.842 59.8 144.642 61.8C139.442 63.8 133.976 66.7333 128.242 70.6L119.642 53C126.576 48.4667 133.642 45.0667 140.842 42.8C148.176 40.5333 155.842 39.4 163.842 39.4C178.776 39.4 190.376 43.1333 198.642 50.6C207.042 58.0667 211.242 68.7333 211.242 82.6V116C211.242 118.933 211.709 121 212.642 122.2C213.576 123.267 215.242 123.933 217.642 124.2V146C215.242 146.533 213.042 146.867 211.042 147C209.176 147.267 207.576 147.4 206.242 147.4C200.909 147.4 196.842 146.2 194.042 143.8C191.242 141.4 189.576 138.467 189.042 135L188.442 129.6C183.776 135.6 178.042 140.2 171.242 143.4C164.576 146.467 157.709 148 150.642 148C143.576 148 137.309 146.6 131.842 143.8C126.376 140.867 122.042 136.933 118.842 132C115.776 126.933 114.242 121.267 114.242 115ZM179.442 120.4C182.776 117.2 184.442 114.133 184.442 111.2V100.6C177.509 97.8 170.509 96.4 163.442 96.4C156.376 96.4 150.642 97.9333 146.242 101C141.842 103.933 139.642 107.867 139.642 112.8C139.642 116.8 141.242 120.4 144.442 123.6C147.642 126.8 152.242 128.4 158.242 128.4C162.242 128.4 166.109 127.667 169.842 126.2C173.709 124.733 176.909 122.8 179.442 120.4ZM298.686 64.4C290.553 64.4 283.286 66 276.886 69.2C270.486 72.2667 265.886 76.7333 263.086 82.6V146H236.286V41.2H260.886V63.6C264.486 56.4 269.153 50.7333 274.886 46.6C280.753 42.4667 286.886 40.2 293.286 39.8C296.086 39.8 297.886 39.8667 298.686 40V64.4ZM376.43 140.6C372.83 142.2 368.363 143.8 363.03 145.4C357.83 147 352.43 147.8 346.83 147.8C341.896 147.8 337.363 146.933 333.23 145.2C329.096 143.467 325.763 140.733 323.23 137C320.83 133.133 319.63 128.133 319.63 122V61.8H305.83V41.2H319.63V7.2H346.43V41.2H368.43V61.8H346.43V113C346.43 116.6 347.363 119.2 349.23 120.8C351.23 122.4 353.63 123.2 356.43 123.2C359.23 123.2 361.963 122.733 364.63 121.8C367.296 120.867 369.43 120.067 371.03 119.4L376.43 140.6ZM437.62 148C426.287 148 416.487 145.533 408.22 140.6C400.087 135.667 393.754 129.133 389.22 121C384.687 112.733 382.42 103.8 382.42 94.2C382.42 84.3333 384.62 75.2667 389.02 67C393.554 58.6 399.954 51.9333 408.22 47C416.487 41.9333 426.354 39.4 437.82 39.4C449.287 39.4 459.087 41.9333 467.22 47C475.354 51.9333 481.554 58.5333 485.82 66.8C490.22 74.9333 492.42 83.7333 492.42 93.2C492.42 96.6667 492.22 99.6667 491.82 102.2H410.82C411.487 110.333 414.487 116.733 419.82 121.4C425.287 126.067 431.554 128.4 438.62 128.4C443.954 128.4 448.954 127.133 453.62 124.6C458.42 121.933 461.687 118.467 463.42 114.2L486.42 120.6C482.554 128.6 476.354 135.2 467.82 140.4C459.287 145.467 449.22 148 437.62 148ZM410.22 85.2H465.02C464.22 77.3333 461.22 71 456.02 66.2C450.954 61.2667 444.754 58.8 437.42 58.8C430.22 58.8 424.02 61.2667 418.82 66.2C413.754 71 410.887 77.3333 410.22 85.2ZM606.147 146H579.347V87.2C579.347 78.8 577.88 72.6667 574.947 68.8C572.014 64.9333 567.947 63 562.747 63C559.147 63 555.48 63.9333 551.747 65.8C548.147 67.6667 544.88 70.2667 541.947 73.6C539.014 76.8 536.88 80.5333 535.547 84.8V146H508.747V41.2H532.947V60.6C536.814 54.0667 542.414 48.9333 549.747 45.2C557.08 41.3333 565.347 39.4 574.547 39.4C581.08 39.4 586.414 40.6 590.547 43C594.68 45.2667 597.88 48.4 600.147 52.4C602.414 56.2667 603.947 60.6667 604.747 65.6C605.68 70.5333 606.147 75.5333 606.147 80.6V146ZM622.25 115C622.25 108.2 624.117 102.267 627.85 97.2C631.717 92 637.05 88 643.85 85.2C650.65 82.4 658.45 81 667.25 81C671.65 81 676.117 81.4 680.65 82.2C685.183 82.8667 689.117 83.8667 692.45 85.2V79.6C692.45 72.9333 690.45 67.8 686.45 64.2C682.583 60.6 676.783 58.8 669.05 58.8C663.317 58.8 657.85 59.8 652.65 61.8C647.45 63.8 641.983 66.7333 636.25 70.6L627.65 53C634.583 48.4667 641.65 45.0667 648.85 42.8C656.183 40.5333 663.85 39.4 671.85 39.4C686.783 39.4 698.383 43.1333 706.65 50.6C715.05 58.0667 719.25 68.7333 719.25 82.6V116C719.25 118.933 719.717 121 720.65 122.2C721.583 123.267 723.25 123.933 725.65 124.2V146C723.25 146.533 721.05 146.867 719.05 147C717.183 147.267 715.583 147.4 714.25 147.4C708.917 147.4 704.85 146.2 702.05 143.8C699.25 141.4 697.583 138.467 697.05 135L696.45 129.6C691.783 135.6 686.05 140.2 679.25 143.4C672.583 146.467 665.717 148 658.65 148C651.583 148 645.317 146.6 639.85 143.8C634.383 140.867 630.05 136.933 626.85 132C623.783 126.933 622.25 121.267 622.25 115ZM687.45 120.4C690.783 117.2 692.45 114.133 692.45 111.2V100.6C685.517 97.8 678.517 96.4 671.45 96.4C664.383 96.4 658.65 97.9333 654.25 101C649.85 103.933 647.65 107.867 647.65 112.8C647.65 116.8 649.25 120.4 652.45 123.6C655.65 126.8 660.25 128.4 666.25 128.4C670.25 128.4 674.117 127.667 677.85 126.2C681.717 124.733 684.917 122.8 687.45 120.4ZM744.294 26.6V-3.8147e-06H771.094V26.6H744.294ZM744.294 146V41.2H771.094V146H744.294ZM857.67 64.4C849.537 64.4 842.27 66 835.87 69.2C829.47 72.2667 824.87 76.7333 822.07 82.6V146H795.27V41.2H819.87V63.6C823.47 56.4 828.137 50.7333 833.87 46.6C839.737 42.4667 845.87 40.2 852.27 39.8C855.07 39.8 856.87 39.8667 857.67 40V64.4ZM919.847 148C908.514 148 898.714 145.533 890.447 140.6C882.314 135.667 875.98 129.133 871.447 121C866.914 112.733 864.647 103.8 864.647 94.2C864.647 84.3333 866.847 75.2667 871.247 67C875.78 58.6 882.18 51.9333 890.447 47C898.714 41.9333 908.58 39.4 920.047 39.4C931.514 39.4 941.314 41.9333 949.447 47C957.58 51.9333 963.78 58.5333 968.047 66.8C972.447 74.9333 974.647 83.7333 974.647 93.2C974.647 96.6667 974.447 99.6667 974.047 102.2H893.047C893.714 110.333 896.714 116.733 902.047 121.4C907.514 126.067 913.78 128.4 920.847 128.4C926.18 128.4 931.18 127.133 935.847 124.6C940.647 121.933 943.914 118.467 945.647 114.2L968.647 120.6C964.78 128.6 958.58 135.2 950.047 140.4C941.514 145.467 931.447 148 919.847 148ZM892.447 85.2H947.247C946.447 77.3333 943.447 71 938.247 66.2C933.18 61.2667 926.98 58.8 919.647 58.8C912.447 58.8 906.247 61.2667 901.047 66.2C895.98 71 893.114 77.3333 892.447 85.2ZM1029.57 148C1020.64 148 1012.11 146.533 1003.97 143.6C995.84 140.667 988.84 136.333 982.973 130.6L992.573 113.2C998.84 118.267 1004.97 122 1010.97 124.4C1016.97 126.8 1022.84 128 1028.57 128C1033.77 128 1037.91 127.067 1040.97 125.2C1044.17 123.333 1045.77 120.533 1045.77 116.8C1045.77 112.933 1043.84 110.333 1039.97 109C1036.11 107.533 1030.71 105.733 1023.77 103.6C1016.04 101.2 1009.57 98.7333 1004.37 96.2C999.173 93.6667 995.24 90.6 992.573 87C990.04 83.4 988.773 78.7333 988.773 73C988.773 62.7333 992.64 54.5333 1000.37 48.4C1008.11 42.2667 1018.37 39.2 1031.17 39.2C1038.64 39.2 1045.71 40.4 1052.37 42.8C1059.04 45.0667 1065.11 48.8 1070.57 54L1059.77 71C1049.51 63 1039.57 59 1029.97 59C1025.71 59 1021.91 59.8 1018.57 61.4C1015.37 63 1013.77 65.8 1013.77 69.8C1013.77 73.5333 1015.31 76.2 1018.37 77.8C1021.57 79.4 1026.37 81.1333 1032.77 83C1041.04 85.5333 1048.04 88 1053.77 90.4C1059.64 92.8 1064.04 95.8667 1066.97 99.6C1070.04 103.333 1071.57 108.4 1071.57 114.8C1071.57 125.2 1067.77 133.333 1060.17 139.2C1052.57 145.067 1042.37 148 1029.57 148Z" fill="#F9F9FC"/>
<path d="M36.5997 151V94.2H60.6797C63.293 94.2 65.693 94.7333 67.8797 95.8C70.1197 96.8667 72.0397 98.3067 73.6397 100.12C75.2397 101.933 76.493 103.96 77.3997 106.2C78.3064 108.44 78.7597 110.733 78.7597 113.08C78.7597 116.28 78.013 119.32 76.5197 122.2C75.0264 125.08 72.9464 127.427 70.2797 129.24C67.6664 131.053 64.5997 131.96 61.0797 131.96H47.6397V151H36.5997ZM47.6397 122.28H60.4397C62.4664 122.28 64.1464 121.453 65.4797 119.8C66.8664 118.093 67.5597 115.853 67.5597 113.08C67.5597 110.147 66.7864 107.88 65.2397 106.28C63.693 104.68 61.933 103.88 59.9597 103.88H47.6397V122.28ZM81.9766 138.6C81.9766 135.88 82.7232 133.507 84.2166 131.48C85.7632 129.4 87.8966 127.8 90.6166 126.68C93.3366 125.56 96.4566 125 99.9766 125C101.737 125 103.523 125.16 105.337 125.48C107.15 125.747 108.723 126.147 110.057 126.68V124.44C110.057 121.773 109.257 119.72 107.657 118.28C106.11 116.84 103.79 116.12 100.697 116.12C98.4032 116.12 96.2166 116.52 94.1366 117.32C92.0566 118.12 89.8699 119.293 87.5766 120.84L84.1366 113.8C86.9099 111.987 89.7366 110.627 92.6166 109.72C95.5499 108.813 98.6166 108.36 101.817 108.36C107.79 108.36 112.43 109.853 115.737 112.84C119.097 115.827 120.777 120.093 120.777 125.64V139C120.777 140.173 120.963 141 121.337 141.48C121.71 141.907 122.377 142.173 123.337 142.28V151C122.377 151.213 121.497 151.347 120.697 151.4C119.95 151.507 119.31 151.56 118.777 151.56C116.643 151.56 115.017 151.08 113.897 150.12C112.777 149.16 112.11 147.987 111.897 146.6L111.657 144.44C109.79 146.84 107.497 148.68 104.777 149.96C102.11 151.187 99.3632 151.8 96.5366 151.8C93.7099 151.8 91.2032 151.24 89.0166 150.12C86.8299 148.947 85.0966 147.373 83.8166 145.4C82.5899 143.373 81.9766 141.107 81.9766 138.6ZM108.057 140.76C109.39 139.48 110.057 138.253 110.057 137.08V132.84C107.283 131.72 104.483 131.16 101.657 131.16C98.8299 131.16 96.5366 131.773 94.7766 133C93.0166 134.173 92.1366 135.747 92.1366 137.72C92.1366 139.32 92.7766 140.76 94.0566 142.04C95.3366 143.32 97.1766 143.96 99.5766 143.96C101.177 143.96 102.723 143.667 104.217 143.08C105.763 142.493 107.043 141.72 108.057 140.76ZM155.754 118.36C152.501 118.36 149.594 119 147.034 120.28C144.474 121.507 142.634 123.293 141.514 125.64V151H130.794V109.08H140.634V118.04C142.074 115.16 143.941 112.893 146.234 111.24C148.581 109.587 151.034 108.68 153.594 108.52C154.714 108.52 155.434 108.547 155.754 108.6V118.36ZM186.852 148.84C185.412 149.48 183.625 150.12 181.492 150.76C179.412 151.4 177.252 151.72 175.012 151.72C173.038 151.72 171.225 151.373 169.572 150.68C167.918 149.987 166.585 148.893 165.572 147.4C164.612 145.853 164.132 143.853 164.132 141.4V117.32H158.612V109.08H164.132V95.48H174.852V109.08H183.652V117.32H174.852V137.8C174.852 139.24 175.225 140.28 175.972 140.92C176.772 141.56 177.732 141.88 178.852 141.88C179.972 141.88 181.065 141.693 182.132 141.32C183.198 140.947 184.052 140.627 184.692 140.36L186.852 148.84ZM211.328 151.8C206.794 151.8 202.874 150.813 199.568 148.84C196.314 146.867 193.781 144.253 191.968 141C190.154 137.693 189.248 134.12 189.248 130.28C189.248 126.333 190.128 122.707 191.888 119.4C193.701 116.04 196.261 113.373 199.568 111.4C202.874 109.373 206.821 108.36 211.408 108.36C215.994 108.36 219.914 109.373 223.168 111.4C226.421 113.373 228.901 116.013 230.608 119.32C232.368 122.573 233.248 126.093 233.248 129.88C233.248 131.267 233.168 132.467 233.008 133.48H200.608C200.874 136.733 202.074 139.293 204.208 141.16C206.394 143.027 208.901 143.96 211.728 143.96C213.861 143.96 215.861 143.453 217.728 142.44C219.648 141.373 220.954 139.987 221.648 138.28L230.848 140.84C229.301 144.04 226.821 146.68 223.408 148.76C219.994 150.787 215.968 151.8 211.328 151.8ZM200.368 126.68H222.288C221.968 123.533 220.768 121 218.688 119.08C216.661 117.107 214.181 116.12 211.248 116.12C208.368 116.12 205.888 117.107 203.808 119.08C201.781 121 200.634 123.533 200.368 126.68ZM278.738 151H268.018V127.48C268.018 124.12 267.432 121.667 266.258 120.12C265.085 118.573 263.458 117.8 261.378 117.8C259.938 117.8 258.472 118.173 256.978 118.92C255.538 119.667 254.232 120.707 253.058 122.04C251.885 123.32 251.032 124.813 250.498 126.52V151H239.778V109.08H249.458V116.84C251.005 114.227 253.245 112.173 256.178 110.68C259.112 109.133 262.418 108.36 266.098 108.36C268.712 108.36 270.845 108.84 272.498 109.8C274.152 110.707 275.432 111.96 276.338 113.56C277.245 115.107 277.858 116.867 278.178 118.84C278.552 120.813 278.738 122.813 278.738 124.84V151ZM285.18 138.6C285.18 135.88 285.926 133.507 287.42 131.48C288.966 129.4 291.1 127.8 293.82 126.68C296.54 125.56 299.66 125 303.18 125C304.94 125 306.726 125.16 308.54 125.48C310.353 125.747 311.926 126.147 313.26 126.68V124.44C313.26 121.773 312.46 119.72 310.86 118.28C309.313 116.84 306.993 116.12 303.9 116.12C301.606 116.12 299.42 116.52 297.34 117.32C295.26 118.12 293.073 119.293 290.78 120.84L287.34 113.8C290.113 111.987 292.94 110.627 295.82 109.72C298.753 108.813 301.82 108.36 305.02 108.36C310.993 108.36 315.633 109.853 318.94 112.84C322.3 115.827 323.98 120.093 323.98 125.64V139C323.98 140.173 324.166 141 324.54 141.48C324.913 141.907 325.58 142.173 326.54 142.28V151C325.58 151.213 324.7 151.347 323.9 151.4C323.153 151.507 322.513 151.56 321.98 151.56C319.846 151.56 318.22 151.08 317.1 150.12C315.98 149.16 315.313 147.987 315.1 146.6L314.86 144.44C312.993 146.84 310.7 148.68 307.98 149.96C305.313 151.187 302.566 151.8 299.74 151.8C296.913 151.8 294.406 151.24 292.22 150.12C290.033 148.947 288.3 147.373 287.02 145.4C285.793 143.373 285.18 141.107 285.18 138.6ZM311.26 140.76C312.593 139.48 313.26 138.253 313.26 137.08V132.84C310.486 131.72 307.686 131.16 304.86 131.16C302.033 131.16 299.74 131.773 297.98 133C296.22 134.173 295.34 135.747 295.34 137.72C295.34 139.32 295.98 140.76 297.26 142.04C298.54 143.32 300.38 143.96 302.78 143.96C304.38 143.96 305.926 143.667 307.42 143.08C308.966 142.493 310.246 141.72 311.26 140.76ZM333.997 103.24V92.6H344.717V103.24H333.997ZM333.997 151V109.08H344.717V151H333.997ZM379.348 118.36C376.094 118.36 373.188 119 370.628 120.28C368.068 121.507 366.228 123.293 365.108 125.64V151H354.388V109.08H364.228V118.04C365.668 115.16 367.534 112.893 369.828 111.24C372.174 109.587 374.628 108.68 377.188 108.52C378.308 108.52 379.028 108.547 379.348 108.6V118.36ZM404.218 151.8C399.685 151.8 395.765 150.813 392.458 148.84C389.205 146.867 386.672 144.253 384.858 141C383.045 137.693 382.138 134.12 382.138 130.28C382.138 126.333 383.018 122.707 384.778 119.4C386.592 116.04 389.152 113.373 392.458 111.4C395.765 109.373 399.712 108.36 404.298 108.36C408.885 108.36 412.805 109.373 416.058 111.4C419.312 113.373 421.792 116.013 423.498 119.32C425.258 122.573 426.138 126.093 426.138 129.88C426.138 131.267 426.058 132.467 425.898 133.48H393.498C393.765 136.733 394.965 139.293 397.098 141.16C399.285 143.027 401.792 143.96 404.618 143.96C406.752 143.96 408.752 143.453 410.618 142.44C412.538 141.373 413.845 139.987 414.538 138.28L423.738 140.84C422.192 144.04 419.712 146.68 416.298 148.76C412.885 150.787 408.858 151.8 404.218 151.8ZM393.258 126.68H415.178C414.858 123.533 413.658 121 411.578 119.08C409.552 117.107 407.072 116.12 404.138 116.12C401.258 116.12 398.778 117.107 396.698 119.08C394.672 121 393.525 123.533 393.258 126.68ZM448.109 151.8C444.536 151.8 441.122 151.213 437.869 150.04C434.616 148.867 431.816 147.133 429.469 144.84L433.309 137.88C435.816 139.907 438.269 141.4 440.669 142.36C443.069 143.32 445.416 143.8 447.709 143.8C449.789 143.8 451.442 143.427 452.669 142.68C453.949 141.933 454.589 140.813 454.589 139.32C454.589 137.773 453.816 136.733 452.269 136.2C450.722 135.613 448.562 134.893 445.789 134.04C442.696 133.08 440.109 132.093 438.029 131.08C435.949 130.067 434.376 128.84 433.309 127.4C432.296 125.96 431.789 124.093 431.789 121.8C431.789 117.693 433.336 114.413 436.429 111.96C439.522 109.507 443.629 108.28 448.749 108.28C451.736 108.28 454.562 108.76 457.229 109.72C459.896 110.627 462.322 112.12 464.509 114.2L460.189 121C456.082 117.8 452.109 116.2 448.269 116.2C446.562 116.2 445.042 116.52 443.709 117.16C442.429 117.8 441.789 118.92 441.789 120.52C441.789 122.013 442.402 123.08 443.629 123.72C444.909 124.36 446.829 125.053 449.389 125.8C452.696 126.813 455.496 127.8 457.789 128.76C460.136 129.72 461.896 130.947 463.069 132.44C464.296 133.933 464.909 135.96 464.909 138.52C464.909 142.68 463.389 145.933 460.349 148.28C457.309 150.627 453.229 151.8 448.109 151.8Z" fill="black"/>
</svg>
