<svg width="798" height="148" viewBox="0 0 798 148" fill="none" xmlns="http://www.w3.org/2000/svg">
<path id="R&#195;&#169;seaux" d="M0.8 146V3.99999H63.6C70.1333 3.99999 76.1333 5.33332 81.6 7.99999C87.2 10.6667 92 14.2667 96 18.8C100.133 23.3333 103.267 28.4 105.4 34C107.667 39.6 108.8 45.3333 108.8 51.2C108.8 60.2667 106.467 68.6 101.8 76.2C97.2667 83.8 91.0667 89.2667 83.2 92.6L115.6 146H85.2L56 98.4H28.4V146H0.8ZM28.4 74.2H63C68.2 74.2 72.4667 72 75.8 67.6C79.2667 63.0667 81 57.6 81 51.2C81 46.8 80.0667 42.8667 78.2 39.4C76.3333 35.9333 73.9333 33.2 71 31.2C68.2 29.2 65.1333 28.2 61.8 28.2H28.4V74.2ZM176.292 148C164.959 148 155.159 145.533 146.892 140.6C138.759 135.667 132.426 129.133 127.892 121C123.359 112.733 121.092 103.8 121.092 94.2C121.092 84.3333 123.292 75.2667 127.692 67C132.226 58.6 138.626 51.9333 146.892 47C155.159 41.9333 165.026 39.4 176.492 39.4C187.959 39.4 197.759 41.9333 205.892 47C214.026 51.9333 220.226 58.5333 224.492 66.8C228.892 74.9333 231.092 83.7333 231.092 93.2C231.092 96.6667 230.892 99.6667 230.492 102.2H149.492C150.159 110.333 153.159 116.733 158.492 121.4C163.959 126.067 170.226 128.4 177.292 128.4C182.626 128.4 187.626 127.133 192.292 124.6C197.092 121.933 200.359 118.467 202.092 114.2L225.092 120.6C221.226 128.6 215.026 135.2 206.492 140.4C197.959 145.467 187.892 148 176.292 148ZM148.892 85.2H203.692C202.892 77.3333 199.892 71 194.692 66.2C189.626 61.2667 183.426 58.8 176.092 58.8C168.892 58.8 162.692 61.2667 157.492 66.2C152.426 71 149.559 77.3333 148.892 85.2ZM184.892 29L167.692 23.8L178.492 -3.8147e-06H203.492L184.892 29ZM286.019 148C277.085 148 268.552 146.533 260.419 143.6C252.285 140.667 245.285 136.333 239.419 130.6L249.019 113.2C255.285 118.267 261.419 122 267.419 124.4C273.419 126.8 279.285 128 285.019 128C290.219 128 294.352 127.067 297.419 125.2C300.619 123.333 302.219 120.533 302.219 116.8C302.219 112.933 300.285 110.333 296.419 109C292.552 107.533 287.152 105.733 280.219 103.6C272.485 101.2 266.019 98.7333 260.819 96.2C255.619 93.6667 251.685 90.6 249.019 87C246.485 83.4 245.219 78.7333 245.219 73C245.219 62.7333 249.085 54.5333 256.819 48.4C264.552 42.2667 274.819 39.2 287.619 39.2C295.085 39.2 302.152 40.4 308.819 42.8C315.485 45.0667 321.552 48.8 327.019 54L316.219 71C305.952 63 296.019 59 286.419 59C282.152 59 278.352 59.8 275.019 61.4C271.819 63 270.219 65.8 270.219 69.8C270.219 73.5333 271.752 76.2 274.819 77.8C278.019 79.4 282.819 81.1333 289.219 83C297.485 85.5333 304.485 88 310.219 90.4C316.085 92.8 320.485 95.8667 323.419 99.6C326.485 103.333 328.019 108.4 328.019 114.8C328.019 125.2 324.219 133.333 316.619 139.2C309.019 145.067 298.819 148 286.019 148ZM394.847 148C383.514 148 373.714 145.533 365.447 140.6C357.314 135.667 350.98 129.133 346.447 121C341.914 112.733 339.647 103.8 339.647 94.2C339.647 84.3333 341.847 75.2667 346.247 67C350.78 58.6 357.18 51.9333 365.447 47C373.714 41.9333 383.58 39.4 395.047 39.4C406.514 39.4 416.314 41.9333 424.447 47C432.58 51.9333 438.78 58.5333 443.047 66.8C447.447 74.9333 449.647 83.7333 449.647 93.2C449.647 96.6667 449.447 99.6667 449.047 102.2H368.047C368.714 110.333 371.714 116.733 377.047 121.4C382.514 126.067 388.78 128.4 395.847 128.4C401.18 128.4 406.18 127.133 410.847 124.6C415.647 121.933 418.914 118.467 420.647 114.2L443.647 120.6C439.78 128.6 433.58 135.2 425.047 140.4C416.514 145.467 406.447 148 394.847 148ZM367.447 85.2H422.247C421.447 77.3333 418.447 71 413.247 66.2C408.18 61.2667 401.98 58.8 394.647 58.8C387.447 58.8 381.247 61.2667 376.047 66.2C370.98 71 368.114 77.3333 367.447 85.2ZM458.773 115C458.773 108.2 460.64 102.267 464.373 97.2C468.24 92 473.573 88 480.373 85.2C487.173 82.4 494.973 81 503.773 81C508.173 81 512.64 81.4 517.173 82.2C521.707 82.8667 525.64 83.8667 528.973 85.2V79.6C528.973 72.9333 526.973 67.8 522.973 64.2C519.107 60.6 513.307 58.8 505.573 58.8C499.84 58.8 494.373 59.8 489.173 61.8C483.973 63.8 478.507 66.7333 472.773 70.6L464.173 53C471.107 48.4667 478.173 45.0667 485.373 42.8C492.707 40.5333 500.373 39.4 508.373 39.4C523.307 39.4 534.907 43.1333 543.173 50.6C551.573 58.0667 555.773 68.7333 555.773 82.6V116C555.773 118.933 556.24 121 557.173 122.2C558.107 123.267 559.773 123.933 562.173 124.2V146C559.773 146.533 557.573 146.867 555.573 147C553.707 147.267 552.107 147.4 550.773 147.4C545.44 147.4 541.373 146.2 538.573 143.8C535.773 141.4 534.107 138.467 533.573 135L532.973 129.6C528.307 135.6 522.573 140.2 515.773 143.4C509.107 146.467 502.24 148 495.173 148C488.107 148 481.84 146.6 476.373 143.8C470.907 140.867 466.573 136.933 463.373 132C460.307 126.933 458.773 121.267 458.773 115ZM523.973 120.4C527.307 117.2 528.973 114.133 528.973 111.2V100.6C522.04 97.8 515.04 96.4 507.973 96.4C500.907 96.4 495.173 97.9333 490.773 101C486.373 103.933 484.173 107.867 484.173 112.8C484.173 116.8 485.773 120.4 488.973 123.6C492.173 126.8 496.773 128.4 502.773 128.4C506.773 128.4 510.64 127.667 514.373 126.2C518.24 124.733 521.44 122.8 523.973 120.4ZM579.817 106.8V41.2H606.617V101C606.617 117.133 612.417 125.2 624.017 125.2C629.217 125.2 634.217 123.667 639.017 120.6C643.951 117.4 647.951 112.6 651.017 106.2V41.2H677.817V116C677.817 118.933 678.284 121 679.217 122.2C680.151 123.267 681.817 123.933 684.217 124.2V146C681.551 146.533 679.284 146.867 677.417 147C675.684 147.133 674.084 147.2 672.617 147.2C667.817 147.2 663.884 146.133 660.817 144C657.884 141.733 656.151 138.667 655.617 134.8L655.017 126.4C650.351 133.6 644.351 139 637.017 142.6C629.684 146.2 621.617 148 612.817 148C602.017 148 593.817 144.533 588.217 137.6C582.617 130.533 579.817 120.267 579.817 106.8ZM721.65 41.2L743.65 74L745.25 77.6L747.25 74L769.05 41.2H797.25L760.85 93.4L797.85 146H769.65L747.05 113.4L745.25 110L743.65 113.4L721.25 146H693.05L730.05 94L693.65 41.2H721.65Z" fill="#F9F9FC"/>
<g id="Group 23">
<path id="R&#195;&#169;seaux_2" d="M50.92 143V86.2H76.04C78.6533 86.2 81.0533 86.7333 83.24 87.8C85.48 88.8667 87.4 90.3067 89 92.12C90.6533 93.9333 91.9067 95.96 92.76 98.2C93.6667 100.44 94.12 102.733 94.12 105.08C94.12 108.707 93.1867 112.04 91.32 115.08C89.5067 118.12 87.0267 120.307 83.88 121.64L96.84 143H84.68L73 123.96H61.96V143H50.92ZM61.96 114.28H75.8C77.88 114.28 79.5867 113.4 80.92 111.64C82.3067 109.827 83 107.64 83 105.08C83 103.32 82.6267 101.747 81.88 100.36C81.1333 98.9733 80.1733 97.88 79 97.08C77.88 96.28 76.6533 95.88 75.32 95.88H61.96V114.28ZM121.117 143.8C116.584 143.8 112.664 142.813 109.357 140.84C106.104 138.867 103.57 136.253 101.757 133C99.9435 129.693 99.0369 126.12 99.0369 122.28C99.0369 118.333 99.9169 114.707 101.677 111.4C103.49 108.04 106.05 105.373 109.357 103.4C112.664 101.373 116.61 100.36 121.197 100.36C125.784 100.36 129.704 101.373 132.957 103.4C136.21 105.373 138.69 108.013 140.397 111.32C142.157 114.573 143.037 118.093 143.037 121.88C143.037 123.267 142.957 124.467 142.797 125.48H110.397C110.664 128.733 111.864 131.293 113.997 133.16C116.184 135.027 118.69 135.96 121.517 135.96C123.65 135.96 125.65 135.453 127.517 134.44C129.437 133.373 130.744 131.987 131.437 130.28L140.637 132.84C139.09 136.04 136.61 138.68 133.197 140.76C129.784 142.787 125.757 143.8 121.117 143.8ZM110.157 118.68H132.077C131.757 115.533 130.557 113 128.477 111.08C126.45 109.107 123.97 108.12 121.037 108.12C118.157 108.12 115.677 109.107 113.597 111.08C111.57 113 110.424 115.533 110.157 118.68ZM124.557 96.2L117.677 94.12L121.997 84.6H131.997L124.557 96.2ZM165.008 143.8C161.434 143.8 158.021 143.213 154.768 142.04C151.514 140.867 148.714 139.133 146.368 136.84L150.208 129.88C152.714 131.907 155.168 133.4 157.568 134.36C159.968 135.32 162.314 135.8 164.608 135.8C166.688 135.8 168.341 135.427 169.568 134.68C170.848 133.933 171.488 132.813 171.488 131.32C171.488 129.773 170.714 128.733 169.168 128.2C167.621 127.613 165.461 126.893 162.688 126.04C159.594 125.08 157.008 124.093 154.928 123.08C152.848 122.067 151.274 120.84 150.208 119.4C149.194 117.96 148.688 116.093 148.688 113.8C148.688 109.693 150.234 106.413 153.328 103.96C156.421 101.507 160.528 100.28 165.648 100.28C168.634 100.28 171.461 100.76 174.128 101.72C176.794 102.627 179.221 104.12 181.408 106.2L177.088 113C172.981 109.8 169.008 108.2 165.168 108.2C163.461 108.2 161.941 108.52 160.608 109.16C159.328 109.8 158.688 110.92 158.688 112.52C158.688 114.013 159.301 115.08 160.528 115.72C161.808 116.36 163.728 117.053 166.288 117.8C169.594 118.813 172.394 119.8 174.688 120.76C177.034 121.72 178.794 122.947 179.968 124.44C181.194 125.933 181.808 127.96 181.808 130.52C181.808 134.68 180.288 137.933 177.248 140.28C174.208 142.627 170.128 143.8 165.008 143.8ZM208.539 143.8C204.005 143.8 200.085 142.813 196.779 140.84C193.525 138.867 190.992 136.253 189.179 133C187.365 129.693 186.459 126.12 186.459 122.28C186.459 118.333 187.339 114.707 189.099 111.4C190.912 108.04 193.472 105.373 196.779 103.4C200.085 101.373 204.032 100.36 208.619 100.36C213.205 100.36 217.125 101.373 220.379 103.4C223.632 105.373 226.112 108.013 227.819 111.32C229.579 114.573 230.459 118.093 230.459 121.88C230.459 123.267 230.379 124.467 230.219 125.48H197.819C198.085 128.733 199.285 131.293 201.419 133.16C203.605 135.027 206.112 135.96 208.939 135.96C211.072 135.96 213.072 135.453 214.939 134.44C216.859 133.373 218.165 131.987 218.859 130.28L228.059 132.84C226.512 136.04 224.032 138.68 220.619 140.76C217.205 142.787 213.179 143.8 208.539 143.8ZM197.579 118.68H219.499C219.179 115.533 217.979 113 215.899 111.08C213.872 109.107 211.392 108.12 208.459 108.12C205.579 108.12 203.099 109.107 201.019 111.08C198.992 113 197.845 115.533 197.579 118.68ZM234.109 130.6C234.109 127.88 234.856 125.507 236.349 123.48C237.896 121.4 240.029 119.8 242.749 118.68C245.469 117.56 248.589 117 252.109 117C253.869 117 255.656 117.16 257.469 117.48C259.283 117.747 260.856 118.147 262.189 118.68V116.44C262.189 113.773 261.389 111.72 259.789 110.28C258.243 108.84 255.923 108.12 252.829 108.12C250.536 108.12 248.349 108.52 246.269 109.32C244.189 110.12 242.003 111.293 239.709 112.84L236.269 105.8C239.043 103.987 241.869 102.627 244.749 101.72C247.683 100.813 250.749 100.36 253.949 100.36C259.923 100.36 264.563 101.853 267.869 104.84C271.229 107.827 272.909 112.093 272.909 117.64V131C272.909 132.173 273.096 133 273.469 133.48C273.843 133.907 274.509 134.173 275.469 134.28V143C274.509 143.213 273.629 143.347 272.829 143.4C272.083 143.507 271.443 143.56 270.909 143.56C268.776 143.56 267.149 143.08 266.029 142.12C264.909 141.16 264.243 139.987 264.029 138.6L263.789 136.44C261.923 138.84 259.629 140.68 256.909 141.96C254.243 143.187 251.496 143.8 248.669 143.8C245.843 143.8 243.336 143.24 241.149 142.12C238.963 140.947 237.229 139.373 235.949 137.4C234.723 135.373 234.109 133.107 234.109 130.6ZM260.189 132.76C261.523 131.48 262.189 130.253 262.189 129.08V124.84C259.416 123.72 256.616 123.16 253.789 123.16C250.963 123.16 248.669 123.773 246.909 125C245.149 126.173 244.269 127.747 244.269 129.72C244.269 131.32 244.909 132.76 246.189 134.04C247.469 135.32 249.309 135.96 251.709 135.96C253.309 135.96 254.856 135.667 256.349 135.08C257.896 134.493 259.176 133.72 260.189 132.76ZM282.527 127.32V101.08H293.247V125C293.247 131.453 295.567 134.68 300.207 134.68C302.287 134.68 304.287 134.067 306.207 132.84C308.18 131.56 309.78 129.64 311.007 127.08V101.08H321.727V131C321.727 132.173 321.914 133 322.287 133.48C322.66 133.907 323.327 134.173 324.287 134.28V143C323.22 143.213 322.314 143.347 321.567 143.4C320.874 143.453 320.234 143.48 319.647 143.48C317.727 143.48 316.154 143.053 314.927 142.2C313.754 141.293 313.06 140.067 312.847 138.52L312.607 135.16C310.74 138.04 308.34 140.2 305.407 141.64C302.474 143.08 299.247 143.8 295.727 143.8C291.407 143.8 288.127 142.413 285.887 139.64C283.647 136.813 282.527 132.707 282.527 127.32ZM339.26 101.08L348.06 114.2L348.7 115.64L349.5 114.2L358.22 101.08H369.5L354.94 121.96L369.74 143H358.46L349.42 129.96L348.7 128.6L348.06 129.96L339.1 143H327.82L342.62 122.2L328.06 101.08H339.26Z" fill="black"/>
</g>
</svg>
