<svg width="320" height="60" viewBox="0 0 320 60" fill="none" xmlns="http://www.w3.org/2000/svg">
<g id="Group 23">
<path id="R&#195;&#169;seaux" d="M0.92 59V2.2H26.04C28.6533 2.2 31.0533 2.73333 33.24 3.8C35.48 4.86666 37.4 6.30666 39 8.12C40.6533 9.93333 41.9067 11.96 42.76 14.2C43.6667 16.44 44.12 18.7333 44.12 21.08C44.12 24.7067 43.1867 28.04 41.32 31.08C39.5067 34.12 37.0267 36.3067 33.88 37.64L46.84 59H34.68L23 39.96H11.96V59H0.92ZM11.96 30.28H25.8C27.88 30.28 29.5867 29.4 30.92 27.64C32.3067 25.8267 33 23.64 33 21.08C33 19.32 32.6267 17.7467 31.88 16.36C31.1333 14.9733 30.1733 13.88 29 13.08C27.88 12.28 26.6533 11.88 25.32 11.88H11.96V30.28ZM71.1169 59.8C66.5835 59.8 62.6635 58.8133 59.3569 56.84C56.1035 54.8667 53.5702 52.2533 51.7569 49C49.9435 45.6933 49.0369 42.12 49.0369 38.28C49.0369 34.3333 49.9169 30.7067 51.6769 27.4C53.4902 24.04 56.0502 21.3733 59.3569 19.4C62.6635 17.3733 66.6102 16.36 71.1969 16.36C75.7835 16.36 79.7035 17.3733 82.9569 19.4C86.2102 21.3733 88.6902 24.0133 90.3969 27.32C92.1569 30.5733 93.0369 34.0933 93.0369 37.88C93.0369 39.2667 92.9569 40.4667 92.7969 41.48H60.3969C60.6635 44.7333 61.8635 47.2933 63.9969 49.16C66.1835 51.0267 68.6902 51.96 71.5169 51.96C73.6502 51.96 75.6502 51.4533 77.5169 50.44C79.4369 49.3733 80.7435 47.9867 81.4369 46.28L90.6369 48.84C89.0902 52.04 86.6102 54.68 83.1969 56.76C79.7835 58.7867 75.7569 59.8 71.1169 59.8ZM60.1569 34.68H82.0769C81.7569 31.5333 80.5569 29 78.4769 27.08C76.4502 25.1067 73.9702 24.12 71.0369 24.12C68.1569 24.12 65.6769 25.1067 63.5969 27.08C61.5702 29 60.4235 31.5333 60.1569 34.68ZM74.5569 12.2L67.6769 10.12L71.9969 0.599998H81.9969L74.5569 12.2ZM115.008 59.8C111.434 59.8 108.021 59.2133 104.768 58.04C101.514 56.8667 98.7142 55.1333 96.3675 52.84L100.208 45.88C102.714 47.9067 105.168 49.4 107.568 50.36C109.968 51.32 112.314 51.8 114.608 51.8C116.688 51.8 118.341 51.4267 119.568 50.68C120.848 49.9333 121.488 48.8133 121.488 47.32C121.488 45.7733 120.714 44.7333 119.168 44.2C117.621 43.6133 115.461 42.8933 112.688 42.04C109.594 41.08 107.008 40.0933 104.928 39.08C102.848 38.0667 101.274 36.84 100.208 35.4C99.1942 33.96 98.6875 32.0933 98.6875 29.8C98.6875 25.6933 100.234 22.4133 103.328 19.96C106.421 17.5067 110.528 16.28 115.648 16.28C118.634 16.28 121.461 16.76 124.128 17.72C126.794 18.6267 129.221 20.12 131.408 22.2L127.088 29C122.981 25.8 119.008 24.2 115.168 24.2C113.461 24.2 111.941 24.52 110.608 25.16C109.328 25.8 108.688 26.92 108.688 28.52C108.688 30.0133 109.301 31.08 110.528 31.72C111.808 32.36 113.728 33.0533 116.288 33.8C119.594 34.8133 122.394 35.8 124.688 36.76C127.034 37.72 128.794 38.9467 129.968 40.44C131.194 41.9333 131.808 43.96 131.808 46.52C131.808 50.68 130.288 53.9333 127.248 56.28C124.208 58.6267 120.128 59.8 115.008 59.8ZM158.539 59.8C154.005 59.8 150.085 58.8133 146.779 56.84C143.525 54.8667 140.992 52.2533 139.179 49C137.365 45.6933 136.459 42.12 136.459 38.28C136.459 34.3333 137.339 30.7067 139.099 27.4C140.912 24.04 143.472 21.3733 146.779 19.4C150.085 17.3733 154.032 16.36 158.619 16.36C163.205 16.36 167.125 17.3733 170.379 19.4C173.632 21.3733 176.112 24.0133 177.819 27.32C179.579 30.5733 180.459 34.0933 180.459 37.88C180.459 39.2667 180.379 40.4667 180.219 41.48H147.819C148.085 44.7333 149.285 47.2933 151.419 49.16C153.605 51.0267 156.112 51.96 158.939 51.96C161.072 51.96 163.072 51.4533 164.939 50.44C166.859 49.3733 168.165 47.9867 168.859 46.28L178.059 48.84C176.512 52.04 174.032 54.68 170.619 56.76C167.205 58.7867 163.179 59.8 158.539 59.8ZM147.579 34.68H169.499C169.179 31.5333 167.979 29 165.899 27.08C163.872 25.1067 161.392 24.12 158.459 24.12C155.579 24.12 153.099 25.1067 151.019 27.08C148.992 29 147.845 31.5333 147.579 34.68ZM184.109 46.6C184.109 43.88 184.856 41.5067 186.349 39.48C187.896 37.4 190.029 35.8 192.749 34.68C195.469 33.56 198.589 33 202.109 33C203.869 33 205.656 33.16 207.469 33.48C209.283 33.7467 210.856 34.1467 212.189 34.68V32.44C212.189 29.7733 211.389 27.72 209.789 26.28C208.243 24.84 205.923 24.12 202.829 24.12C200.536 24.12 198.349 24.52 196.269 25.32C194.189 26.12 192.003 27.2933 189.709 28.84L186.269 21.8C189.043 19.9867 191.869 18.6267 194.749 17.72C197.683 16.8133 200.749 16.36 203.949 16.36C209.923 16.36 214.563 17.8533 217.869 20.84C221.229 23.8267 222.909 28.0933 222.909 33.64V47C222.909 48.1733 223.096 49 223.469 49.48C223.843 49.9067 224.509 50.1733 225.469 50.28V59C224.509 59.2133 223.629 59.3467 222.829 59.4C222.083 59.5067 221.443 59.56 220.909 59.56C218.776 59.56 217.149 59.08 216.029 58.12C214.909 57.16 214.243 55.9867 214.029 54.6L213.789 52.44C211.923 54.84 209.629 56.68 206.909 57.96C204.243 59.1867 201.496 59.8 198.669 59.8C195.843 59.8 193.336 59.24 191.149 58.12C188.963 56.9467 187.229 55.3733 185.949 53.4C184.723 51.3733 184.109 49.1067 184.109 46.6ZM210.189 48.76C211.523 47.48 212.189 46.2533 212.189 45.08V40.84C209.416 39.72 206.616 39.16 203.789 39.16C200.963 39.16 198.669 39.7733 196.909 41C195.149 42.1733 194.269 43.7467 194.269 45.72C194.269 47.32 194.909 48.76 196.189 50.04C197.469 51.32 199.309 51.96 201.709 51.96C203.309 51.96 204.856 51.6667 206.349 51.08C207.896 50.4933 209.176 49.72 210.189 48.76ZM232.527 43.32V17.08H243.247V41C243.247 47.4533 245.567 50.68 250.207 50.68C252.287 50.68 254.287 50.0667 256.207 48.84C258.18 47.56 259.78 45.64 261.007 43.08V17.08H271.727V47C271.727 48.1733 271.914 49 272.287 49.48C272.66 49.9067 273.327 50.1733 274.287 50.28V59C273.22 59.2133 272.314 59.3467 271.567 59.4C270.874 59.4533 270.234 59.48 269.647 59.48C267.727 59.48 266.154 59.0533 264.927 58.2C263.754 57.2933 263.06 56.0667 262.847 54.52L262.607 51.16C260.74 54.04 258.34 56.2 255.407 57.64C252.474 59.08 249.247 59.8 245.727 59.8C241.407 59.8 238.127 58.4133 235.887 55.64C233.647 52.8133 232.527 48.7067 232.527 43.32ZM289.26 17.08L298.06 30.2L298.7 31.64L299.5 30.2L308.22 17.08H319.5L304.94 37.96L319.74 59H308.46L299.42 45.96L298.7 44.6L298.06 45.96L289.1 59H277.82L292.62 38.2L278.06 17.08H289.26Z" fill="black"/>
</g>
</svg>
