<svg width="798" height="148" viewBox="0 0 798 148" fill="none" xmlns="http://www.w3.org/2000/svg">
<path id="R&#195;&#169;seaux" d="M0.8 146V3.99999H63.6C70.1333 3.99999 76.1333 5.33332 81.6 7.99999C87.2 10.6667 92 14.2667 96 18.8C100.133 23.3333 103.267 28.4 105.4 34C107.667 39.6 108.8 45.3333 108.8 51.2C108.8 60.2667 106.467 68.6 101.8 76.2C97.2667 83.8 91.0667 89.2667 83.2 92.6L115.6 146H85.2L56 98.4H28.4V146H0.8ZM28.4 74.2H63C68.2 74.2 72.4667 72 75.8 67.6C79.2667 63.0667 81 57.6 81 51.2C81 46.8 80.0667 42.8667 78.2 39.4C76.3333 35.9333 73.9333 33.2 71 31.2C68.2 29.2 65.1333 28.2 61.8 28.2H28.4V74.2ZM176.292 148C164.959 148 155.159 145.533 146.892 140.6C138.759 135.667 132.426 129.133 127.892 121C123.359 112.733 121.092 103.8 121.092 94.2C121.092 84.3333 123.292 75.2667 127.692 67C132.226 58.6 138.626 51.9333 146.892 47C155.159 41.9333 165.026 39.4 176.492 39.4C187.959 39.4 197.759 41.9333 205.892 47C214.026 51.9333 220.226 58.5333 224.492 66.8C228.892 74.9333 231.092 83.7333 231.092 93.2C231.092 96.6667 230.892 99.6667 230.492 102.2H149.492C150.159 110.333 153.159 116.733 158.492 121.4C163.959 126.067 170.226 128.4 177.292 128.4C182.626 128.4 187.626 127.133 192.292 124.6C197.092 121.933 200.359 118.467 202.092 114.2L225.092 120.6C221.226 128.6 215.026 135.2 206.492 140.4C197.959 145.467 187.892 148 176.292 148ZM148.892 85.2H203.692C202.892 77.3333 199.892 71 194.692 66.2C189.626 61.2667 183.426 58.8 176.092 58.8C168.892 58.8 162.692 61.2667 157.492 66.2C152.426 71 149.559 77.3333 148.892 85.2ZM184.892 29L167.692 23.8L178.492 -3.8147e-06H203.492L184.892 29ZM286.019 148C277.085 148 268.552 146.533 260.419 143.6C252.285 140.667 245.285 136.333 239.419 130.6L249.019 113.2C255.285 118.267 261.419 122 267.419 124.4C273.419 126.8 279.285 128 285.019 128C290.219 128 294.352 127.067 297.419 125.2C300.619 123.333 302.219 120.533 302.219 116.8C302.219 112.933 300.285 110.333 296.419 109C292.552 107.533 287.152 105.733 280.219 103.6C272.485 101.2 266.019 98.7333 260.819 96.2C255.619 93.6667 251.685 90.6 249.019 87C246.485 83.4 245.219 78.7333 245.219 73C245.219 62.7333 249.085 54.5333 256.819 48.4C264.552 42.2667 274.819 39.2 287.619 39.2C295.085 39.2 302.152 40.4 308.819 42.8C315.485 45.0667 321.552 48.8 327.019 54L316.219 71C305.952 63 296.019 59 286.419 59C282.152 59 278.352 59.8 275.019 61.4C271.819 63 270.219 65.8 270.219 69.8C270.219 73.5333 271.752 76.2 274.819 77.8C278.019 79.4 282.819 81.1333 289.219 83C297.485 85.5333 304.485 88 310.219 90.4C316.085 92.8 320.485 95.8667 323.419 99.6C326.485 103.333 328.019 108.4 328.019 114.8C328.019 125.2 324.219 133.333 316.619 139.2C309.019 145.067 298.819 148 286.019 148ZM394.847 148C383.514 148 373.714 145.533 365.447 140.6C357.314 135.667 350.98 129.133 346.447 121C341.914 112.733 339.647 103.8 339.647 94.2C339.647 84.3333 341.847 75.2667 346.247 67C350.78 58.6 357.18 51.9333 365.447 47C373.714 41.9333 383.58 39.4 395.047 39.4C406.514 39.4 416.314 41.9333 424.447 47C432.58 51.9333 438.78 58.5333 443.047 66.8C447.447 74.9333 449.647 83.7333 449.647 93.2C449.647 96.6667 449.447 99.6667 449.047 102.2H368.047C368.714 110.333 371.714 116.733 377.047 121.4C382.514 126.067 388.78 128.4 395.847 128.4C401.18 128.4 406.18 127.133 410.847 124.6C415.647 121.933 418.914 118.467 420.647 114.2L443.647 120.6C439.78 128.6 433.58 135.2 425.047 140.4C416.514 145.467 406.447 148 394.847 148ZM367.447 85.2H422.247C421.447 77.3333 418.447 71 413.247 66.2C408.18 61.2667 401.98 58.8 394.647 58.8C387.447 58.8 381.247 61.2667 376.047 66.2C370.98 71 368.114 77.3333 367.447 85.2ZM458.773 115C458.773 108.2 460.64 102.267 464.373 97.2C468.24 92 473.573 88 480.373 85.2C487.173 82.4 494.973 81 503.773 81C508.173 81 512.64 81.4 517.173 82.2C521.707 82.8667 525.64 83.8667 528.973 85.2V79.6C528.973 72.9333 526.973 67.8 522.973 64.2C519.107 60.6 513.307 58.8 505.573 58.8C499.84 58.8 494.373 59.8 489.173 61.8C483.973 63.8 478.507 66.7333 472.773 70.6L464.173 53C471.107 48.4667 478.173 45.0667 485.373 42.8C492.707 40.5333 500.373 39.4 508.373 39.4C523.307 39.4 534.907 43.1333 543.173 50.6C551.573 58.0667 555.773 68.7333 555.773 82.6V116C555.773 118.933 556.24 121 557.173 122.2C558.107 123.267 559.773 123.933 562.173 124.2V146C559.773 146.533 557.573 146.867 555.573 147C553.707 147.267 552.107 147.4 550.773 147.4C545.44 147.4 541.373 146.2 538.573 143.8C535.773 141.4 534.107 138.467 533.573 135L532.973 129.6C528.307 135.6 522.573 140.2 515.773 143.4C509.107 146.467 502.24 148 495.173 148C488.107 148 481.84 146.6 476.373 143.8C470.907 140.867 466.573 136.933 463.373 132C460.307 126.933 458.773 121.267 458.773 115ZM523.973 120.4C527.307 117.2 528.973 114.133 528.973 111.2V100.6C522.04 97.8 515.04 96.4 507.973 96.4C500.907 96.4 495.173 97.9333 490.773 101C486.373 103.933 484.173 107.867 484.173 112.8C484.173 116.8 485.773 120.4 488.973 123.6C492.173 126.8 496.773 128.4 502.773 128.4C506.773 128.4 510.64 127.667 514.373 126.2C518.24 124.733 521.44 122.8 523.973 120.4ZM579.817 106.8V41.2H606.617V101C606.617 117.133 612.417 125.2 624.017 125.2C629.217 125.2 634.217 123.667 639.017 120.6C643.951 117.4 647.951 112.6 651.017 106.2V41.2H677.817V116C677.817 118.933 678.284 121 679.217 122.2C680.151 123.267 681.817 123.933 684.217 124.2V146C681.551 146.533 679.284 146.867 677.417 147C675.684 147.133 674.084 147.2 672.617 147.2C667.817 147.2 663.884 146.133 660.817 144C657.884 141.733 656.151 138.667 655.617 134.8L655.017 126.4C650.351 133.6 644.351 139 637.017 142.6C629.684 146.2 621.617 148 612.817 148C602.017 148 593.817 144.533 588.217 137.6C582.617 130.533 579.817 120.267 579.817 106.8ZM721.65 41.2L743.65 74L745.25 77.6L747.25 74L769.05 41.2H797.25L760.85 93.4L797.85 146H769.65L747.05 113.4L745.25 110L743.65 113.4L721.25 146H693.05L730.05 94L693.65 41.2H721.65Z" fill="#F9F9FC"/>
</svg>
