<svg width="586" height="586" viewBox="0 0 586 586" fill="none" xmlns="http://www.w3.org/2000/svg">
<path d="M246.308 579.08L5.52682 343.181M165.135 558.244L32.0581 427.866M211.564 574.336L16.4762 383.203M336.429 579.802L3.00003 252.618M280.525 583L3.00002 311.618M312.32 583L3.00003 279.952M463.399 526.166C454.5 517.5 53.5358 122.858 53.5358 122.858M361.592 574.336L8.89584 227.037M384.438 568.147L16.4762 204.035M406.653 558.245C400.5 552 22.3721 181.033 22.3721 181.033M426.445 548.755C417 540 32.0581 160.61 32.0581 160.61M445.291 538.131C436.5 529.5 42.4812 140.805 42.4812 140.805M480.034 512.344C472.5 505 66.5907 105.529 66.5907 105.529M513.619 485.216L95.9645 75.4097M496.984 499.347L79.3299 89.541M527.306 470.363L109.651 60.5564M537.202 450.661L127.654 47.8693M548.257 430.754L147.869 37.245M558.785 409.609L168.82 26.6208M574.893 363.295L211.564 9.60147M567.418 389.804L187.56 18.0595M580.368 242.509L335.903 6.09446M580.368 338.952L236.832 6.09445M583 313.269L266.311 6.09445M583 277.889L296.422 2.99997M570.998 201.972L379.174 14.0368M551.1 151.223L441.922 44.7748" stroke="#83B175" stroke-width="6"/>
</svg>
