<svg width="518" height="108" viewBox="0 0 518 108" fill="none" xmlns="http://www.w3.org/2000/svg">
<path d="M43.6316 40.275C43.6316 43.275 42.8566 45.8 41.3066 47.85C39.7566 49.85 37.6566 51.375 35.0066 52.425C32.4066 53.475 29.5566 54 26.4566 54H0.731641V0.749997H29.2316C31.7316 0.749997 33.8816 1.425 35.6816 2.775C37.4816 4.075 38.8816 5.775 39.8816 7.875C40.8816 9.975 41.3816 12.125 41.3816 14.325C41.3816 16.925 40.7316 19.375 39.4316 21.675C38.1316 23.925 36.2316 25.6 33.7316 26.7C36.7816 27.6 39.1816 29.225 40.9316 31.575C42.7316 33.925 43.6316 36.825 43.6316 40.275ZM11.0816 9.6V23.025H24.8816C26.5816 23.025 28.0566 22.425 29.3066 21.225C30.5566 20.025 31.1816 18.375 31.1816 16.275C31.1816 14.275 30.6066 12.675 29.4566 11.475C28.3566 10.225 26.9816 9.6 25.3316 9.6H11.0816ZM33.2066 38.325C33.2066 36.375 32.6066 34.7 31.4066 33.3C30.2066 31.9 28.7316 31.2 26.9816 31.2H11.0816V45.225H26.4566C28.3566 45.225 29.9566 44.55 31.2566 43.2C32.5566 41.85 33.2066 40.225 33.2066 38.325ZM74.4332 54.375C70.5332 54.375 66.9832 53.625 63.7832 52.125C60.6332 50.625 57.9082 48.6 55.6082 46.05C53.3582 43.45 51.6082 40.55 50.3582 37.35C49.1082 34.1 48.4832 30.775 48.4832 27.375C48.4832 23.825 49.1332 20.45 50.4332 17.25C51.7332 14 53.5582 11.125 55.9082 8.625C58.2582 6.075 61.0082 4.075 64.1582 2.625C67.3582 1.125 70.8582 0.374997 74.6582 0.374997C78.5082 0.374997 82.0082 1.15 85.1582 2.7C88.3582 4.25 91.0832 6.325 93.3332 8.925C95.6332 11.525 97.3832 14.45 98.5832 17.7C99.8332 20.9 100.458 24.175 100.458 27.525C100.458 31.025 99.8082 34.4 98.5082 37.65C97.2082 40.85 95.3832 43.725 93.0332 46.275C90.7332 48.775 87.9832 50.75 84.7832 52.2C81.6332 53.65 78.1832 54.375 74.4332 54.375ZM58.9832 27.375C58.9832 30.475 59.5832 33.375 60.7832 36.075C62.0332 38.775 63.8082 40.975 66.1082 42.675C68.4582 44.375 71.2582 45.225 74.5082 45.225C77.8582 45.225 80.6832 44.35 82.9832 42.6C85.2832 40.85 87.0332 38.6 88.2332 35.85C89.4332 33.1 90.0332 30.275 90.0332 27.375C90.0332 24.275 89.4082 21.375 88.1582 18.675C86.9082 15.975 85.1082 13.8 82.7582 12.15C80.4582 10.45 77.7082 9.6 74.5082 9.6C71.1582 9.6 68.3332 10.475 66.0332 12.225C63.7332 13.975 61.9832 16.225 60.7832 18.975C59.5832 21.675 58.9832 24.475 58.9832 27.375ZM108.398 54V0.749997H118.748V54H108.398ZM161.583 14.7C161.133 14.2 160.183 13.55 158.733 12.75C157.283 11.9 155.533 11.15 153.483 10.5C151.483 9.8 149.408 9.45 147.258 9.45C141.608 9.45 138.783 11.45 138.783 15.45C138.783 16.9 139.233 18.05 140.133 18.9C141.033 19.75 142.383 20.475 144.183 21.075C145.983 21.675 148.233 22.325 150.933 23.025C154.433 23.925 157.458 24.975 160.008 26.175C162.608 27.375 164.583 28.975 165.933 30.975C167.333 32.925 168.033 35.525 168.033 38.775C168.033 42.575 167.108 45.65 165.258 48C163.458 50.3 161.058 51.975 158.058 53.025C155.058 54.075 151.808 54.6 148.308 54.6C144.308 54.6 140.333 54 136.383 52.8C132.483 51.55 129.008 49.85 125.958 47.7L130.533 38.775C130.983 39.225 131.783 39.825 132.933 40.575C134.083 41.275 135.483 42 137.133 42.75C138.783 43.45 140.583 44.05 142.533 44.55C144.483 45.05 146.458 45.3 148.458 45.3C154.158 45.3 157.008 43.475 157.008 39.825C157.008 38.275 156.433 37.025 155.283 36.075C154.133 35.125 152.508 34.325 150.408 33.675C148.358 33.025 145.958 32.3 143.208 31.5C139.808 30.55 136.983 29.5 134.733 28.35C132.533 27.15 130.883 25.675 129.783 23.925C128.683 22.125 128.133 19.85 128.133 17.1C128.133 13.45 128.983 10.4 130.683 7.95C132.433 5.45 134.783 3.575 137.733 2.325C140.683 1.025 143.958 0.374997 147.558 0.374997C151.258 0.374997 154.708 0.974997 157.908 2.175C161.108 3.375 163.858 4.75 166.158 6.3L161.583 14.7ZM175.854 54V0.749997H195.204C201.004 0.749997 205.854 1.95 209.754 4.35C213.654 6.7 216.579 9.9 218.529 13.95C220.479 17.95 221.454 22.4 221.454 27.3C221.454 32.7 220.379 37.4 218.229 41.4C216.079 45.4 213.029 48.5 209.079 50.7C205.129 52.9 200.504 54 195.204 54H175.854ZM211.029 27.3C211.029 23.85 210.404 20.825 209.154 18.225C207.904 15.575 206.104 13.525 203.754 12.075C201.404 10.575 198.554 9.825 195.204 9.825H186.204V44.925H195.204C198.604 44.925 201.479 44.175 203.829 42.675C206.179 41.125 207.954 39.025 209.154 36.375C210.404 33.675 211.029 30.65 211.029 27.3ZM229.54 54V0.749997H239.89V54H229.54ZM261.35 19.8V54H251V0.749997H259.25L286.775 35.85V0.824996H297.125V54H288.5L261.35 19.8ZM330.327 54.375C326.827 54.375 323.552 53.675 320.502 52.275C317.452 50.875 314.752 48.95 312.402 46.5C310.102 44 308.302 41.1 307.002 37.8C305.702 34.5 305.052 30.925 305.052 27.075C305.052 23.425 305.702 20 307.002 16.8C308.302 13.55 310.127 10.7 312.477 8.25C314.827 5.8 317.577 3.875 320.727 2.475C323.877 1.075 327.302 0.374997 331.002 0.374997C335.952 0.374997 340.227 1.45 343.827 3.6C347.427 5.7 350.127 8.5 351.927 12L344.202 17.7C342.852 15.1 340.952 13.1 338.502 11.7C336.102 10.25 333.477 9.525 330.627 9.525C327.627 9.525 324.977 10.35 322.677 12C320.427 13.65 318.652 15.825 317.352 18.525C316.102 21.225 315.477 24.175 315.477 27.375C315.477 30.725 316.152 33.75 317.502 36.45C318.852 39.15 320.702 41.3 323.052 42.9C325.452 44.45 328.177 45.225 331.227 45.225C336.377 45.225 341.027 42.8 345.177 37.95V34.2H334.452V26.625H353.727V54H345.177V48C340.877 52.25 335.927 54.375 330.327 54.375ZM407.323 0.749997V54H397.048V31.275H372.898V54H362.548V0.749997H372.898V22.275H397.048V0.749997H407.323ZM455.407 44.925V54H418.432V0.749997H454.732V9.825H428.782V22.65H451.207V31.05H428.782V44.925H455.407ZM506.901 54V19.05L493.251 45.075H487.476L473.826 19.05V54H463.476V0.749997H474.576L490.326 31.05L506.226 0.749997H517.251V54H506.901Z" fill="black"/>
<path d="M164.323 97.85C164.323 99.85 163.806 101.533 162.773 102.9C161.739 104.233 160.339 105.25 158.573 105.95C156.839 106.65 154.939 107 152.873 107H135.723V71.5H154.723C156.389 71.5 157.823 71.95 159.023 72.85C160.256 73.7167 161.189 74.85 161.823 76.25C162.489 77.6167 162.823 79.05 162.823 80.55C162.823 82.25 162.389 83.8667 161.523 85.4C160.656 86.9333 159.389 88.0667 157.723 88.8C159.756 89.4 161.356 90.4833 162.523 92.05C163.723 93.6167 164.323 95.55 164.323 97.85ZM157.373 96.55C157.373 95.65 157.189 94.85 156.823 94.15C156.456 93.4167 155.956 92.85 155.323 92.45C154.723 92.0167 154.023 91.8 153.223 91.8H142.623V101.15H152.873C153.706 101.15 154.456 100.95 155.123 100.55C155.823 100.117 156.373 99.55 156.773 98.85C157.173 98.15 157.373 97.3833 157.373 96.55ZM142.623 77.4V86.35H151.823C152.589 86.35 153.289 86.1667 153.923 85.8C154.556 85.4333 155.056 84.9167 155.423 84.25C155.823 83.5833 156.023 82.7833 156.023 81.85C156.023 80.95 155.839 80.1667 155.473 79.5C155.139 78.8333 154.673 78.3167 154.073 77.95C153.506 77.5833 152.856 77.4 152.123 77.4H142.623ZM169.057 107V80.8H175.757V107H169.057ZM169.057 77.15V70.5H175.757V77.15H169.057ZM193.951 107.5C191.851 107.5 189.951 107.15 188.251 106.45C186.551 105.717 185.101 104.733 183.901 103.5C182.701 102.233 181.768 100.8 181.101 99.2C180.468 97.5667 180.151 95.85 180.151 94.05C180.151 91.55 180.701 89.2667 181.801 87.2C182.935 85.1333 184.535 83.4833 186.601 82.25C188.701 80.9833 191.168 80.35 194.001 80.35C196.868 80.35 199.318 80.9833 201.351 82.25C203.385 83.4833 204.935 85.1333 206.001 87.2C207.101 89.2333 207.651 91.4333 207.651 93.8C207.651 94.2 207.635 94.6167 207.601 95.05C207.568 95.45 207.535 95.7833 207.501 96.05H187.251C187.385 97.3833 187.768 98.55 188.401 99.55C189.068 100.55 189.901 101.317 190.901 101.85C191.935 102.35 193.035 102.6 194.201 102.6C195.535 102.6 196.785 102.283 197.951 101.65C199.151 100.983 199.968 100.117 200.401 99.05L206.151 100.65C205.518 101.983 204.601 103.167 203.401 104.2C202.235 105.233 200.851 106.05 199.251 106.65C197.651 107.217 195.885 107.5 193.951 107.5ZM187.101 91.8H200.801C200.668 90.4667 200.285 89.3167 199.651 88.35C199.051 87.35 198.251 86.5833 197.251 86.05C196.251 85.4833 195.135 85.2 193.901 85.2C192.701 85.2 191.601 85.4833 190.601 86.05C189.635 86.5833 188.835 87.35 188.201 88.35C187.601 89.3167 187.235 90.4667 187.101 91.8ZM236.083 107H229.383V92.3C229.383 90.2 229.016 88.6667 228.283 87.7C227.549 86.7333 226.533 86.25 225.233 86.25C224.333 86.25 223.416 86.4833 222.483 86.95C221.583 87.4167 220.766 88.0667 220.033 88.9C219.299 89.7 218.766 90.6333 218.433 91.7V107H211.733V80.8H217.783V85.65C218.449 84.5167 219.299 83.5667 220.333 82.8C221.366 82 222.549 81.4 223.883 81C225.249 80.5667 226.683 80.35 228.183 80.35C229.816 80.35 231.149 80.65 232.183 81.25C233.249 81.8167 234.049 82.6 234.583 83.6C235.149 84.5667 235.533 85.6667 235.733 86.9C235.966 88.1333 236.083 89.3833 236.083 90.65V107ZM248.519 107L238.869 80.8H245.819L252.419 100.9L259.069 80.8H265.419L255.819 107H248.519ZM280.23 107.5C278.13 107.5 276.23 107.15 274.53 106.45C272.83 105.717 271.38 104.733 270.18 103.5C268.98 102.233 268.047 100.8 267.38 99.2C266.747 97.5667 266.43 95.85 266.43 94.05C266.43 91.55 266.98 89.2667 268.08 87.2C269.214 85.1333 270.814 83.4833 272.88 82.25C274.98 80.9833 277.447 80.35 280.28 80.35C283.147 80.35 285.597 80.9833 287.63 82.25C289.664 83.4833 291.214 85.1333 292.28 87.2C293.38 89.2333 293.93 91.4333 293.93 93.8C293.93 94.2 293.914 94.6167 293.88 95.05C293.847 95.45 293.814 95.7833 293.78 96.05H273.53C273.664 97.3833 274.047 98.55 274.68 99.55C275.347 100.55 276.18 101.317 277.18 101.85C278.214 102.35 279.314 102.6 280.48 102.6C281.814 102.6 283.064 102.283 284.23 101.65C285.43 100.983 286.247 100.117 286.68 99.05L292.43 100.65C291.797 101.983 290.88 103.167 289.68 104.2C288.514 105.233 287.13 106.05 285.53 106.65C283.93 107.217 282.164 107.5 280.23 107.5ZM273.38 91.8H287.08C286.947 90.4667 286.564 89.3167 285.93 88.35C285.33 87.35 284.53 86.5833 283.53 86.05C282.53 85.4833 281.414 85.2 280.18 85.2C278.98 85.2 277.88 85.4833 276.88 86.05C275.914 86.5833 275.114 87.35 274.48 88.35C273.88 89.3167 273.514 90.4667 273.38 91.8ZM322.362 107H315.662V92.3C315.662 90.2 315.295 88.6667 314.562 87.7C313.829 86.7333 312.812 86.25 311.512 86.25C310.612 86.25 309.695 86.4833 308.762 86.95C307.862 87.4167 307.045 88.0667 306.312 88.9C305.579 89.7 305.045 90.6333 304.712 91.7V107H298.012V80.8H304.062V85.65C304.729 84.5167 305.579 83.5667 306.612 82.8C307.645 82 308.829 81.4 310.162 81C311.529 80.5667 312.962 80.35 314.462 80.35C316.095 80.35 317.429 80.65 318.462 81.25C319.529 81.8167 320.329 82.6 320.862 83.6C321.429 84.5667 321.812 85.6667 322.012 86.9C322.245 88.1333 322.362 89.3833 322.362 90.65V107ZM327.938 97.2V80.8H334.638V95.75C334.638 97.75 335.005 99.2667 335.738 100.3C336.471 101.3 337.555 101.8 338.988 101.8C339.855 101.8 340.705 101.633 341.538 101.3C342.405 100.933 343.188 100.4 343.888 99.7C344.621 99 345.238 98.1167 345.738 97.05V80.8H352.438V99.5C352.438 100.2 352.555 100.7 352.788 101C353.055 101.3 353.471 101.483 354.038 101.55V107C353.371 107.1 352.805 107.167 352.338 107.2C351.905 107.267 351.505 107.3 351.138 107.3C349.938 107.3 348.955 107.033 348.188 106.5C347.455 105.933 347.021 105.167 346.888 104.2L346.738 102.1C345.571 103.867 344.071 105.217 342.238 106.15C340.405 107.05 338.388 107.5 336.188 107.5C333.488 107.5 331.438 106.633 330.038 104.9C328.638 103.133 327.938 100.567 327.938 97.2ZM371.246 107.5C369.146 107.5 367.246 107.15 365.546 106.45C363.846 105.717 362.396 104.733 361.196 103.5C359.996 102.233 359.063 100.8 358.396 99.2C357.763 97.5667 357.446 95.85 357.446 94.05C357.446 91.55 357.996 89.2667 359.096 87.2C360.229 85.1333 361.829 83.4833 363.896 82.25C365.996 80.9833 368.463 80.35 371.296 80.35C374.163 80.35 376.613 80.9833 378.646 82.25C380.679 83.4833 382.229 85.1333 383.296 87.2C384.396 89.2333 384.946 91.4333 384.946 93.8C384.946 94.2 384.929 94.6167 384.896 95.05C384.863 95.45 384.829 95.7833 384.796 96.05H364.546C364.679 97.3833 365.063 98.55 365.696 99.55C366.363 100.55 367.196 101.317 368.196 101.85C369.229 102.35 370.329 102.6 371.496 102.6C372.829 102.6 374.079 102.283 375.246 101.65C376.446 100.983 377.263 100.117 377.696 99.05L383.446 100.65C382.813 101.983 381.896 103.167 380.696 104.2C379.529 105.233 378.146 106.05 376.546 106.65C374.946 107.217 373.179 107.5 371.246 107.5ZM364.396 91.8H378.096C377.963 90.4667 377.579 89.3167 376.946 88.35C376.346 87.35 375.546 86.5833 374.546 86.05C373.546 85.4833 372.429 85.2 371.196 85.2C369.996 85.2 368.896 85.4833 367.896 86.05C366.929 86.5833 366.129 87.35 365.496 88.35C364.896 89.3167 364.529 90.4667 364.396 91.8Z" fill="black"/>
<path d="M1 90H111" stroke="black" stroke-width="5"/>
<path d="M517 93L407 93" stroke="black" stroke-width="5"/>
</svg>
