<svg width="518" height="108" viewBox="0 0 518 108" fill="none" xmlns="http://www.w3.org/2000/svg">
<path d="M43.6316 40.275C43.6316 43.275 42.8566 45.8 41.3066 47.85C39.7566 49.85 37.6566 51.375 35.0066 52.425C32.4066 53.475 29.5566 54 26.4566 54H0.731641V0.749997H29.2316C31.7316 0.749997 33.8816 1.425 35.6816 2.775C37.4816 4.075 38.8816 5.775 39.8816 7.875C40.8816 9.975 41.3816 12.125 41.3816 14.325C41.3816 16.925 40.7316 19.375 39.4316 21.675C38.1316 23.925 36.2316 25.6 33.7316 26.7C36.7816 27.6 39.1816 29.225 40.9316 31.575C42.7316 33.925 43.6316 36.825 43.6316 40.275ZM11.0816 9.6V23.025H24.8816C26.5816 23.025 28.0566 22.425 29.3066 21.225C30.5566 20.025 31.1816 18.375 31.1816 16.275C31.1816 14.275 30.6066 12.675 29.4566 11.475C28.3566 10.225 26.9816 9.6 25.3316 9.6H11.0816ZM33.2066 38.325C33.2066 36.375 32.6066 34.7 31.4066 33.3C30.2066 31.9 28.7316 31.2 26.9816 31.2H11.0816V45.225H26.4566C28.3566 45.225 29.9566 44.55 31.2566 43.2C32.5566 41.85 33.2066 40.225 33.2066 38.325ZM74.4332 54.375C70.5332 54.375 66.9832 53.625 63.7832 52.125C60.6332 50.625 57.9082 48.6 55.6082 46.05C53.3582 43.45 51.6082 40.55 50.3582 37.35C49.1082 34.1 48.4832 30.775 48.4832 27.375C48.4832 23.825 49.1332 20.45 50.4332 17.25C51.7332 14 53.5582 11.125 55.9082 8.625C58.2582 6.075 61.0082 4.075 64.1582 2.625C67.3582 1.125 70.8582 0.374997 74.6582 0.374997C78.5082 0.374997 82.0082 1.15 85.1582 2.7C88.3582 4.25 91.0832 6.325 93.3332 8.925C95.6332 11.525 97.3832 14.45 98.5832 17.7C99.8332 20.9 100.458 24.175 100.458 27.525C100.458 31.025 99.8082 34.4 98.5082 37.65C97.2082 40.85 95.3832 43.725 93.0332 46.275C90.7332 48.775 87.9832 50.75 84.7832 52.2C81.6332 53.65 78.1832 54.375 74.4332 54.375ZM58.9832 27.375C58.9832 30.475 59.5832 33.375 60.7832 36.075C62.0332 38.775 63.8082 40.975 66.1082 42.675C68.4582 44.375 71.2582 45.225 74.5082 45.225C77.8582 45.225 80.6832 44.35 82.9832 42.6C85.2832 40.85 87.0332 38.6 88.2332 35.85C89.4332 33.1 90.0332 30.275 90.0332 27.375C90.0332 24.275 89.4082 21.375 88.1582 18.675C86.9082 15.975 85.1082 13.8 82.7582 12.15C80.4582 10.45 77.7082 9.6 74.5082 9.6C71.1582 9.6 68.3332 10.475 66.0332 12.225C63.7332 13.975 61.9832 16.225 60.7832 18.975C59.5832 21.675 58.9832 24.475 58.9832 27.375ZM108.398 54V0.749997H118.748V54H108.398ZM161.583 14.7C161.133 14.2 160.183 13.55 158.733 12.75C157.283 11.9 155.533 11.15 153.483 10.5C151.483 9.8 149.408 9.45 147.258 9.45C141.608 9.45 138.783 11.45 138.783 15.45C138.783 16.9 139.233 18.05 140.133 18.9C141.033 19.75 142.383 20.475 144.183 21.075C145.983 21.675 148.233 22.325 150.933 23.025C154.433 23.925 157.458 24.975 160.008 26.175C162.608 27.375 164.583 28.975 165.933 30.975C167.333 32.925 168.033 35.525 168.033 38.775C168.033 42.575 167.108 45.65 165.258 48C163.458 50.3 161.058 51.975 158.058 53.025C155.058 54.075 151.808 54.6 148.308 54.6C144.308 54.6 140.333 54 136.383 52.8C132.483 51.55 129.008 49.85 125.958 47.7L130.533 38.775C130.983 39.225 131.783 39.825 132.933 40.575C134.083 41.275 135.483 42 137.133 42.75C138.783 43.45 140.583 44.05 142.533 44.55C144.483 45.05 146.458 45.3 148.458 45.3C154.158 45.3 157.008 43.475 157.008 39.825C157.008 38.275 156.433 37.025 155.283 36.075C154.133 35.125 152.508 34.325 150.408 33.675C148.358 33.025 145.958 32.3 143.208 31.5C139.808 30.55 136.983 29.5 134.733 28.35C132.533 27.15 130.883 25.675 129.783 23.925C128.683 22.125 128.133 19.85 128.133 17.1C128.133 13.45 128.983 10.4 130.683 7.95C132.433 5.45 134.783 3.575 137.733 2.325C140.683 1.025 143.958 0.374997 147.558 0.374997C151.258 0.374997 154.708 0.974997 157.908 2.175C161.108 3.375 163.858 4.75 166.158 6.3L161.583 14.7ZM175.854 54V0.749997H195.204C201.004 0.749997 205.854 1.95 209.754 4.35C213.654 6.7 216.579 9.9 218.529 13.95C220.479 17.95 221.454 22.4 221.454 27.3C221.454 32.7 220.379 37.4 218.229 41.4C216.079 45.4 213.029 48.5 209.079 50.7C205.129 52.9 200.504 54 195.204 54H175.854ZM211.029 27.3C211.029 23.85 210.404 20.825 209.154 18.225C207.904 15.575 206.104 13.525 203.754 12.075C201.404 10.575 198.554 9.825 195.204 9.825H186.204V44.925H195.204C198.604 44.925 201.479 44.175 203.829 42.675C206.179 41.125 207.954 39.025 209.154 36.375C210.404 33.675 211.029 30.65 211.029 27.3ZM229.54 54V0.749997H239.89V54H229.54ZM261.35 19.8V54H251V0.749997H259.25L286.775 35.85V0.824996H297.125V54H288.5L261.35 19.8ZM330.327 54.375C326.827 54.375 323.552 53.675 320.502 52.275C317.452 50.875 314.752 48.95 312.402 46.5C310.102 44 308.302 41.1 307.002 37.8C305.702 34.5 305.052 30.925 305.052 27.075C305.052 23.425 305.702 20 307.002 16.8C308.302 13.55 310.127 10.7 312.477 8.25C314.827 5.8 317.577 3.875 320.727 2.475C323.877 1.075 327.302 0.374997 331.002 0.374997C335.952 0.374997 340.227 1.45 343.827 3.6C347.427 5.7 350.127 8.5 351.927 12L344.202 17.7C342.852 15.1 340.952 13.1 338.502 11.7C336.102 10.25 333.477 9.525 330.627 9.525C327.627 9.525 324.977 10.35 322.677 12C320.427 13.65 318.652 15.825 317.352 18.525C316.102 21.225 315.477 24.175 315.477 27.375C315.477 30.725 316.152 33.75 317.502 36.45C318.852 39.15 320.702 41.3 323.052 42.9C325.452 44.45 328.177 45.225 331.227 45.225C336.377 45.225 341.027 42.8 345.177 37.95V34.2H334.452V26.625H353.727V54H345.177V48C340.877 52.25 335.927 54.375 330.327 54.375ZM407.323 0.749997V54H397.048V31.275H372.898V54H362.548V0.749997H372.898V22.275H397.048V0.749997H407.323ZM455.407 44.925V54H418.432V0.749997H454.732V9.825H428.782V22.65H451.207V31.05H428.782V44.925H455.407ZM506.901 54V19.05L493.251 45.075H487.476L473.826 19.05V54H463.476V0.749997H474.576L490.326 31.05L506.226 0.749997H517.251V54H506.901Z" fill="black"/>
<path d="M167.421 97.85C167.421 99.6167 166.971 101.2 166.071 102.6C165.171 103.967 163.954 105.05 162.421 105.85C160.921 106.617 159.271 107 157.471 107H140.721V71.5H157.821C159.487 71.5 160.921 71.95 162.121 72.85C163.354 73.7167 164.287 74.85 164.921 76.25C165.587 77.6167 165.921 79.05 165.921 80.55C165.921 82.3167 165.471 83.95 164.571 85.45C163.671 86.95 162.421 88.0667 160.821 88.8C162.854 89.4 164.454 90.5167 165.621 92.15C166.821 93.7833 167.421 95.6833 167.421 97.85ZM163.921 97.25C163.921 96.05 163.654 94.95 163.121 93.95C162.587 92.9167 161.854 92.0833 160.921 91.45C160.021 90.8167 158.987 90.5 157.821 90.5H144.221V103.95H157.471C158.671 103.95 159.754 103.633 160.721 103C161.687 102.367 162.454 101.55 163.021 100.55C163.621 99.5167 163.921 98.4167 163.921 97.25ZM144.221 74.55V87.65H156.421C157.587 87.65 158.621 87.35 159.521 86.75C160.421 86.1167 161.137 85.3 161.671 84.3C162.204 83.3 162.471 82.2333 162.471 81.1C162.471 79.9 162.221 78.8167 161.721 77.85C161.221 76.85 160.537 76.05 159.671 75.45C158.804 74.85 157.821 74.55 156.721 74.55H144.221ZM173.322 107V80.95H176.722V107H173.322ZM173.322 75.5V70.5H176.722V75.5H173.322ZM195.46 107.5C193.594 107.5 191.86 107.15 190.26 106.45C188.66 105.717 187.277 104.733 186.11 103.5C184.944 102.233 184.027 100.783 183.36 99.15C182.727 97.5167 182.41 95.7667 182.41 93.9C182.41 91.4667 182.96 89.2333 184.06 87.2C185.194 85.1667 186.744 83.55 188.71 82.35C190.677 81.1167 192.91 80.5 195.41 80.5C197.977 80.5 200.21 81.1167 202.11 82.35C204.044 83.5833 205.56 85.2167 206.66 87.25C207.76 89.25 208.31 91.45 208.31 93.85C208.31 94.1167 208.31 94.3833 208.31 94.65C208.31 94.8833 208.294 95.0667 208.26 95.2H185.96C186.127 97.0667 186.644 98.7333 187.51 100.2C188.41 101.633 189.56 102.783 190.96 103.65C192.394 104.483 193.944 104.9 195.61 104.9C197.31 104.9 198.91 104.467 200.41 103.6C201.944 102.733 203.01 101.6 203.61 100.2L206.56 101C206.027 102.233 205.21 103.35 204.11 104.35C203.01 105.35 201.71 106.133 200.21 106.7C198.744 107.233 197.16 107.5 195.46 107.5ZM185.86 92.75H205.11C204.977 90.85 204.46 89.1833 203.56 87.75C202.694 86.3167 201.544 85.2 200.11 84.4C198.71 83.5667 197.16 83.15 195.46 83.15C193.76 83.15 192.21 83.5667 190.81 84.4C189.41 85.2 188.26 86.3333 187.36 87.8C186.494 89.2333 185.994 90.8833 185.86 92.75ZM235.456 107H232.056V92.45C232.056 89.3833 231.606 87.15 230.706 85.75C229.806 84.3167 228.389 83.6 226.456 83.6C225.123 83.6 223.806 83.9333 222.506 84.6C221.206 85.2333 220.056 86.1167 219.056 87.25C218.089 88.35 217.389 89.6167 216.956 91.05V107H213.556V80.95H216.656V86.85C217.356 85.5833 218.273 84.4833 219.406 83.55C220.539 82.5833 221.823 81.8333 223.256 81.3C224.689 80.7667 226.173 80.5 227.706 80.5C229.139 80.5 230.356 80.7667 231.356 81.3C232.356 81.8333 233.156 82.6 233.756 83.6C234.356 84.5667 234.789 85.75 235.056 87.15C235.323 88.5167 235.456 90.05 235.456 91.75V107ZM249.919 107L239.369 80.95H242.919L251.819 103.6L260.769 80.95H264.119L253.569 107H249.919ZM279.2 107.5C277.334 107.5 275.6 107.15 274 106.45C272.4 105.717 271.017 104.733 269.85 103.5C268.684 102.233 267.767 100.783 267.1 99.15C266.467 97.5167 266.15 95.7667 266.15 93.9C266.15 91.4667 266.7 89.2333 267.8 87.2C268.934 85.1667 270.484 83.55 272.45 82.35C274.417 81.1167 276.65 80.5 279.15 80.5C281.717 80.5 283.95 81.1167 285.85 82.35C287.784 83.5833 289.3 85.2167 290.4 87.25C291.5 89.25 292.05 91.45 292.05 93.85C292.05 94.1167 292.05 94.3833 292.05 94.65C292.05 94.8833 292.034 95.0667 292 95.2H269.7C269.867 97.0667 270.384 98.7333 271.25 100.2C272.15 101.633 273.3 102.783 274.7 103.65C276.134 104.483 277.684 104.9 279.35 104.9C281.05 104.9 282.65 104.467 284.15 103.6C285.684 102.733 286.75 101.6 287.35 100.2L290.3 101C289.767 102.233 288.95 103.35 287.85 104.35C286.75 105.35 285.45 106.133 283.95 106.7C282.484 107.233 280.9 107.5 279.2 107.5ZM269.6 92.75H288.85C288.717 90.85 288.2 89.1833 287.3 87.75C286.434 86.3167 285.284 85.2 283.85 84.4C282.45 83.5667 280.9 83.15 279.2 83.15C277.5 83.15 275.95 83.5667 274.55 84.4C273.15 85.2 272 86.3333 271.1 87.8C270.234 89.2333 269.734 90.8833 269.6 92.75ZM319.196 107H315.796V92.45C315.796 89.3833 315.346 87.15 314.446 85.75C313.546 84.3167 312.129 83.6 310.196 83.6C308.863 83.6 307.546 83.9333 306.246 84.6C304.946 85.2333 303.796 86.1167 302.796 87.25C301.829 88.35 301.129 89.6167 300.696 91.05V107H297.296V80.95H300.396V86.85C301.096 85.5833 302.013 84.4833 303.146 83.55C304.279 82.5833 305.563 81.8333 306.996 81.3C308.429 80.7667 309.913 80.5 311.446 80.5C312.879 80.5 314.096 80.7667 315.096 81.3C316.096 81.8333 316.896 82.6 317.496 83.6C318.096 84.5667 318.529 85.75 318.796 87.15C319.063 88.5167 319.196 90.05 319.196 91.75V107ZM326.197 96.25V80.95H329.597V95.65C329.597 98.6167 330.097 100.833 331.097 102.3C332.13 103.767 333.647 104.5 335.647 104.5C336.98 104.5 338.263 104.217 339.497 103.65C340.763 103.05 341.88 102.217 342.847 101.15C343.813 100.05 344.547 98.7833 345.047 97.35V80.95H348.447V102.9C348.447 103.367 348.547 103.717 348.747 103.95C348.947 104.15 349.247 104.267 349.647 104.3V107C349.247 107.033 348.93 107.05 348.697 107.05C348.463 107.083 348.247 107.1 348.047 107.1C347.38 107.033 346.797 106.767 346.297 106.3C345.83 105.833 345.58 105.267 345.547 104.6L345.447 101.1C344.313 103.1 342.763 104.667 340.797 105.8C338.863 106.933 336.763 107.5 334.497 107.5C331.763 107.5 329.697 106.55 328.297 104.65C326.897 102.75 326.197 99.95 326.197 96.25ZM367.384 107.5C365.517 107.5 363.784 107.15 362.184 106.45C360.584 105.717 359.201 104.733 358.034 103.5C356.867 102.233 355.951 100.783 355.284 99.15C354.651 97.5167 354.334 95.7667 354.334 93.9C354.334 91.4667 354.884 89.2333 355.984 87.2C357.117 85.1667 358.667 83.55 360.634 82.35C362.601 81.1167 364.834 80.5 367.334 80.5C369.901 80.5 372.134 81.1167 374.034 82.35C375.967 83.5833 377.484 85.2167 378.584 87.25C379.684 89.25 380.234 91.45 380.234 93.85C380.234 94.1167 380.234 94.3833 380.234 94.65C380.234 94.8833 380.217 95.0667 380.184 95.2H357.884C358.051 97.0667 358.567 98.7333 359.434 100.2C360.334 101.633 361.484 102.783 362.884 103.65C364.317 104.483 365.867 104.9 367.534 104.9C369.234 104.9 370.834 104.467 372.334 103.6C373.867 102.733 374.934 101.6 375.534 100.2L378.484 101C377.951 102.233 377.134 103.35 376.034 104.35C374.934 105.35 373.634 106.133 372.134 106.7C370.667 107.233 369.084 107.5 367.384 107.5ZM357.784 92.75H377.034C376.901 90.85 376.384 89.1833 375.484 87.75C374.617 86.3167 373.467 85.2 372.034 84.4C370.634 83.5667 369.084 83.15 367.384 83.15C365.684 83.15 364.134 83.5667 362.734 84.4C361.334 85.2 360.184 86.3333 359.284 87.8C358.417 89.2333 357.917 90.8833 357.784 92.75Z" fill="black"/>
<path d="M1 90H111" stroke="black" stroke-width="5"/>
<path d="M517 93L407 93" stroke="black" stroke-width="5"/>
</svg>
